<svg id="Layer_1" data-name="Layer 1" xmlns="http://www.w3.org/2000/svg" xmlns:xlink="http://www.w3.org/1999/xlink" viewBox="0 0 1080 1080"><defs><style>.cls-1,.cls-3,.cls-4,.cls-6{fill:none;}.cls-2{clip-path:url(#clip-path);}.cls-3,.cls-4,.cls-6{stroke:#4cbfa5;}.cls-3,.cls-6{stroke-miterlimit:10;}.cls-3{stroke-width:9px;}.cls-4{stroke-width:8px;}.cls-5{fill:#4cbfa5;}.cls-6{stroke-width:2.66px;}</style><clipPath id="clip-path"><rect class="cls-1" x="196.41" y="159.29" width="667.19" height="669.42"/></clipPath></defs><g class="cls-2"><path class="cls-3" d="M568,566.68a118,118,0,1,1,118,118A118,118,0,0,1,568,566.68ZM356.81,374.1h323M599.29,485.92H456.2V684.71H400.29m118-521.82L269.84,349.26V374.1h49.69v253M717.11,448.65V374.1h49.7V349.26L518.32,162.89M555.6,374.1V312a37.28,37.28,0,0,0-74.55,0V374.1"/><line class="cls-4" x1="756.52" y1="659.07" x2="860.77" y2="763.31"/><line class="cls-4" x1="767.21" y1="649.99" x2="858.29" y2="741.07"/><path class="cls-5" d="M367,658.33a10.74,10.74,0,0,1-14.83,2,10.6,10.6,0,0,1-4.14-9.62,46.19,46.19,0,0,0,15.31,6.88c1.21.3,2.43.54,3.66.74M349.87,645.7c.1-.14.19-.28.3-.42a10.62,10.62,0,0,1,19,8.17,41.39,41.39,0,0,1-19.34-7.75M303.24,821.62l-5.17-1.56-3.27-16.22,27.7-89.06-1.44-1.06a45.37,45.37,0,0,1-5.28-4.54A47.8,47.8,0,0,1,304,661,49,49,0,0,1,348,626.62a47.24,47.24,0,0,1,16.19,2,46.7,46.7,0,0,1,27.33,21.72,42.91,42.91,0,0,1-17.19,3.5,16.2,16.2,0,1,0-1.66,5.11,48.6,48.6,0,0,0,8.84-.48,47.86,47.86,0,0,0,12.3-3.56,47.81,47.81,0,0,1,1.79,33.62,49,49,0,0,1-44.11,34.38l-1.8.09-7.56,24.32-13.3,6.1,6.12,12.9L322.48,771l6.23,15.66-12.6,4.83,6.45,16.22ZM281.82,719.51l-13.67-3.77-3.55,13.62-12.17-4.23-5.18,15.78-12.33-4.29L229.55,753l-22.87-1.67-2.81-4.38,7.7-14.29,80.35-52.74-4.81-28.52,52.94-34.75,3.4,5.28-.63.09h-.09l-.89.15-.25,0-.68.12-.24,0c-.3,0-.6.11-.89.18h-.09l-.8.18-.26.06-.7.17-.2,0-.88.22-.18,0-.71.2-.26.08-.73.22-.15,0-.86.28-.23.07-.66.23-.25.09-.86.31c-1.26.47-2.5,1-3.72,1.55a54.59,54.59,0,0,0-20.58,16.57,52.78,52.78,0,0,0-4.45,7,53.68,53.68,0,0,0-4,9.62,53,53,0,0,0-1.56,6.29c-.11.6-.21,1.21-.3,1.81s-.17,1.21-.24,1.82a53.07,53.07,0,0,0,1.27,19.08l.25,1,.09.3c.06.22.12.44.19.66s.07.23.1.35.13.42.2.62.07.23.1.34.15.46.23.68l.09.27c.1.31.21.63.33.93l.06.17c.09.26.19.51.29.76l.12.32.24.61.15.35c.08.2.16.39.25.59l.14.33.3.67c0,.08.07.16.11.23.13.3.27.59.41.89l.12.24.32.64.17.33.29.56.18.33.31.57.17.3.41.71a1.09,1.09,0,0,1,.08.15l.51.83.16.27c.12.19.24.38.37.57l.08.13ZM341.61,586c14.18-18.82,40.8-22.76,59.34-8.8s22.08,40.65,7.9,59.47A43.15,43.15,0,0,1,396.09,648a52.23,52.23,0,0,0-46.83-26.53l-7.66-11.91L333,615.16A43.31,43.31,0,0,1,341.61,586M322.78,794.43l12.61-4.83-6.24-15.66,12.77-4.89-6.26-13.22L346.28,751l7.18-23.1a53,53,0,0,0,14.07-3.15,54.2,54.2,0,0,0,35.12-55.83,52.81,52.81,0,0,0-4.27-16.33l.34-.2a48.28,48.28,0,0,0,23.52-48,47,47,0,0,0-5.79-17.21A46.64,46.64,0,0,0,387.12,565a47.16,47.16,0,0,0-18.15-.83,48.29,48.29,0,0,0-40.74,54.13L281.52,649l4.81,28.52-78.06,51.23-.55.37L198,747.22l5.79,9,29.38,2.14,5-15.21,12.34,4.29,5.18-15.78L268.12,736l3.64-14,10.86,3,24.11-15.82,5.61,3.78a53.56,53.56,0,0,0,4.22,3.75l-27,86.87,4.12,20.47,10.45,3.14,24.68-17.72Z"/><path class="cls-6" d="M367,658.33a10.74,10.74,0,0,1-14.83,2,10.6,10.6,0,0,1-4.14-9.62,46.19,46.19,0,0,0,15.31,6.88C364.55,657.89,365.77,658.13,367,658.33ZM349.87,645.7c.1-.14.19-.28.3-.42a10.62,10.62,0,0,1,19,8.17A41.39,41.39,0,0,1,349.87,645.7ZM303.24,821.62l-5.17-1.56-3.27-16.22,27.7-89.06-1.44-1.06a45.37,45.37,0,0,1-5.28-4.54A47.8,47.8,0,0,1,304,661,49,49,0,0,1,348,626.62a47.24,47.24,0,0,1,16.19,2,46.7,46.7,0,0,1,27.33,21.72,42.91,42.91,0,0,1-17.19,3.5,16.2,16.2,0,1,0-1.66,5.11,48.6,48.6,0,0,0,8.84-.48,47.86,47.86,0,0,0,12.3-3.56,47.81,47.81,0,0,1,1.79,33.62,49,49,0,0,1-44.11,34.38l-1.8.09-7.56,24.32-13.3,6.1,6.12,12.9L322.48,771l6.23,15.66-12.6,4.83,6.45,16.22ZM281.82,719.51l-13.67-3.77-3.55,13.62-12.17-4.23-5.18,15.78-12.33-4.29L229.55,753l-22.87-1.67-2.81-4.38,7.7-14.29,80.35-52.74-4.81-28.52,52.94-34.75,3.4,5.28-.63.09h-.09l-.89.15-.25,0-.68.12-.24,0c-.3,0-.6.11-.89.18h-.09l-.8.18-.26.06-.7.17-.2,0-.88.22-.18,0-.71.2-.26.08-.73.22-.15,0-.86.28-.23.07-.66.23-.25.09-.86.31c-1.26.47-2.5,1-3.72,1.55a54.59,54.59,0,0,0-20.58,16.57,52.78,52.78,0,0,0-4.45,7,53.68,53.68,0,0,0-4,9.62,53,53,0,0,0-1.56,6.29c-.11.6-.21,1.21-.3,1.81s-.17,1.21-.24,1.82a53.07,53.07,0,0,0,1.27,19.08l.25,1,.09.3c.06.22.12.44.19.66s.07.23.1.35.13.42.2.62.07.23.1.34.15.46.23.68l.09.27c.1.31.21.63.33.93l.06.17c.09.26.19.51.29.76l.12.32.24.61.15.35c.08.2.16.39.25.59l.14.33.3.67c0,.08.07.16.11.23.13.3.27.59.41.89l.12.24.32.64.17.33.29.56.18.33.31.57.17.3.41.71a1.09,1.09,0,0,1,.08.15l.51.83.16.27c.12.19.24.38.37.57l.08.13ZM341.61,586c14.18-18.82,40.8-22.76,59.34-8.8s22.08,40.65,7.9,59.47A43.15,43.15,0,0,1,396.09,648a52.23,52.23,0,0,0-46.83-26.53l-7.66-11.91L333,615.16A43.31,43.31,0,0,1,341.61,586ZM322.78,794.43l12.61-4.83-6.24-15.66,12.77-4.89-6.26-13.22L346.28,751l7.18-23.1a53,53,0,0,0,14.07-3.15,54.2,54.2,0,0,0,35.12-55.83,52.81,52.81,0,0,0-4.27-16.33l.34-.2a48.28,48.28,0,0,0,23.52-48,47,47,0,0,0-5.79-17.21A46.64,46.64,0,0,0,387.12,565a47.16,47.16,0,0,0-18.15-.83,48.29,48.29,0,0,0-40.74,54.13L281.52,649l4.81,28.52-78.06,51.23-.55.37L198,747.22l5.79,9,29.38,2.14,5-15.21,12.34,4.29,5.18-15.78L268.12,736l3.64-14,10.86,3,24.11-15.82,5.61,3.78a53.56,53.56,0,0,0,4.22,3.75l-27,86.87,4.12,20.47,10.45,3.14,24.68-17.72Z"/></g></svg>