<?xml version="1.0" encoding="utf-8"?>
<!-- Generator: Adobe Illustrator 25.4.0, SVG Export Plug-In . SVG Version: 6.00 Build 0)  -->
<svg version="1.1" id="Layer_1" xmlns="http://www.w3.org/2000/svg" xmlns:xlink="http://www.w3.org/1999/xlink" x="0px" y="0px"
	 viewBox="0 0 1080 1080" style="enable-background:new 0 0 1080 1080;" xml:space="preserve">
<style type="text/css">
	.st0{fill:#22293B;}
	.st1{fill:none;stroke:#22293B;stroke-width:21;}
</style>
<g>
	<path class="st0" d="M698.42,712.11c28.96-13.59,55.95-26.58,83.24-38.95c25.24-11.45,51.47-5.12,67.02,15.02
		c6.97,9.03,7.61,16.25-3.05,23.1c-61.84,39.74-122.89,80.76-185.58,119.11c-29.9,18.29-64.26,18.82-97.98,9.91
		c-40.98-10.84-81.89-22.07-122.48-34.28c-19.79-5.96-33.79,4.81-49.12,12.96c-0.85,0.45-2.03,1.4-2.04,2.13
		c-0.41,24-18.04,17.26-31.4,17.32c-19.69,0.08-39.38-0.68-59.07-0.7c-11.64-0.01-16.88-4.8-16.53-16.91
		c1.65-57.45,2.99-114.92,4.18-172.38c0.27-12.77,5.14-19.06,18.82-18.26c23.27,1.35,46.59,2.39,69.89,2.38
		c13.57-0.01,19.25,5.13,17.57,18.57c-0.3,2.44,0.3,4.99,0.6,9.02c7.99-2.93,14.97-5.84,22.17-8.08
		c33.55-10.46,67.02-9.43,98.24,6.41c22.94,11.64,46.3,17.04,71.58,16.83c13.46-0.11,26.97,1.35,40.4,0.8
		C655.55,674.83,681,683.88,698.42,712.11z M826.92,697.24c-12.09-10.72-24.27-10.44-36.73-4.7c-24.91,11.47-49.85,22.9-74.26,35.38
		c-4.58,2.34-8.96,9.23-9.49,14.43c-1.08,10.56-5.55,14.84-15.76,14.54c-39.38-1.17-78.78-1.84-118.11-3.79
		c-4.8-0.24-9.28-7.05-13.9-10.81c4.82-3.37,9.62-9.58,14.48-9.63c25.89-0.26,51.8,1.12,77.71,1.74
		c10.52,0.25,21.06,0.04,31.89,0.04c-6.08-22.56-20.73-35.01-42.09-36.25c-16.04-0.93-32.13-2.07-48.16-1.75
		c-32.1,0.64-61.97-4.9-91.37-19.58c-32.9-16.44-67.49-12.84-100.11,4.2c-4.05,2.12-9.48,6.86-9.56,10.49
		c-0.73,33.86-0.43,67.74-0.43,102.69c23.72-17.15,48.87-11.22,74.79-3.15c33.08,10.3,66.55,19.4,100.1,28.06
		c33.43,8.62,65.33,5.79,95.18-13.91c50.14-33.08,100.84-65.3,151.28-97.93C817.04,704.28,821.54,700.97,826.92,697.24z
		 M304.06,816.01c20.64,0,40.47,0,64.62,0c0-26.83,0-53.53,0-80.24c0-26.68,0-53.37,0-81.9c-19.89,0-40.15,0-61.39,0
		c-1.29,50.95-2.57,101.46-3.8,151.97C303.42,808.81,303.81,811.79,304.06,816.01z"/>
	<path class="st0" d="M577.93,645.24c-85.87,0.37-155.89-68.95-155.67-154.11c0.22-84.64,69.65-154.11,154.3-154.37
		c85.62-0.27,155.61,69.23,155.6,154.53C732.16,576.08,663.26,644.87,577.93,645.24z M577.58,624.25
		c73.97-0.25,133.25-59.86,133-133.75c-0.25-73.56-60.21-132.5-134.44-132.15c-72.96,0.35-132.33,59.93-132.37,132.84
		C443.73,564.72,503.85,624.5,577.58,624.25z"/>
	<path class="st0" d="M564.14,256.95c0-15.51-0.84-31.1,0.48-46.5c0.43-5.03,6.52-9.58,10.02-14.35c3.43,4.9,9.68,9.71,9.82,14.71
		c0.91,31,0.92,62.05-0.03,93.05c-0.15,4.88-6.63,9.57-10.18,14.34c-3.37-4.91-9.22-9.6-9.65-14.76
		C563.32,288.05,564.14,272.46,564.14,256.95z"/>
	<path class="st0" d="M483.93,284.12c-0.01-7.73-1.18-15.71,0.43-23.08c0.94-4.28,6.35-7.59,9.75-11.33
		c3.67,3.56,10.24,6.91,10.52,10.72c1.16,15.87,1.03,31.93-0.09,47.81c-0.25,3.58-6.4,6.74-9.83,10.1
		c-3.59-3.68-9.3-6.87-10.3-11.16C482.71,299.86,483.95,291.85,483.93,284.12z"/>
	<path class="st0" d="M664.83,285.3c0,7.2,1.24,14.7-0.44,21.49c-1.09,4.38-6.46,7.7-9.9,11.49c-3.5-3.23-9.8-6.28-10.02-9.72
		c-1.05-16.37-1.02-32.88,0.04-49.25c0.22-3.4,7.26-9.55,9.71-8.9c4.15,1.09,9.3,6.14,10.15,10.31
		C665.97,268.61,664.83,277.07,664.83,285.3z"/>
	<path class="st1" d="M188.62,536.04 M310.59,569.37 M549.94,512.54c7.35,15.44,22.04,15.44,22.04,15.44h15.92
		c10.78,0,19.59-9.27,19.59-20.59l0,0c0-11.32-8.81-20.59-19.59-20.59h-17.14c-10.78,0-19.59-9.27-19.59-20.59l0,0
		c0-11.32,8.81-20.59,19.59-20.59h15.92c0,0,14.69,0,22.04,15.44 M579.32,425.08v20.59 M579.32,527.98v20.59"/>
</g>
</svg>
