<?xml version="1.0" encoding="utf-8"?>
<!-- Generator: Adobe Illustrator 25.4.0, SVG Export Plug-In . SVG Version: 6.00 Build 0)  -->
<svg version="1.1" id="Layer_1" xmlns="http://www.w3.org/2000/svg" xmlns:xlink="http://www.w3.org/1999/xlink" x="0px" y="0px"
	 viewBox="0 0 1080 1080" style="enable-background:new 0 0 1080 1080;" xml:space="preserve">
<style type="text/css">
	.st0{fill:none;stroke:#22293B;stroke-width:21;}
	.st1{fill:none;stroke:#4CBFA5;stroke-width:21;}
	.st2{fill:none;stroke:#22293B;stroke-width:22;}
	.st3{fill:none;stroke:#4CBFA5;stroke-width:21;stroke-miterlimit:10;}
	.st4{fill:none;stroke:#22293B;stroke-width:21;stroke-miterlimit:10;}
	.st5{fill:none;stroke:#22293B;stroke-width:25;stroke-miterlimit:10;}
	.st6{fill:none;stroke:#4CBFA5;stroke-width:25;stroke-miterlimit:10;}
	.st7{fill:#FFFFFF;}
	.st8{fill:none;stroke:#4CBFA5;stroke-width:11;stroke-miterlimit:10;}
	.st9{fill:#4CBFA5;}
	.st10{fill:none;stroke:#4CBFA5;stroke-width:17;stroke-miterlimit:10;}
	.st11{fill:none;stroke:#22293B;stroke-width:11;stroke-miterlimit:10;}
	.st12{fill:#22293B;}
	.st13{fill:none;stroke:#22293B;stroke-width:17;stroke-miterlimit:10;}
	.st14{fill:none;stroke:#4CBFA5;stroke-width:21;stroke-linecap:round;stroke-linejoin:round;stroke-miterlimit:10;}
	.st15{fill:none;stroke:#4CBFA5;}
	.st16{fill:none;stroke:#4CBFA5;stroke-width:14;stroke-miterlimit:10;}
	.st17{fill:none;stroke:#22293B;stroke-width:20;stroke-miterlimit:10;}
	.st18{fill:none;stroke:#22293B;stroke-width:20;stroke-linecap:round;stroke-linejoin:round;stroke-miterlimit:10;}
	.st19{fill:none;stroke:#22293B;stroke-width:2;}
	.st20{fill:none;stroke:#1B1C1C;stroke-width:13;stroke-miterlimit:10;}
	.st21{fill:none;stroke:#4CBFA5;stroke-width:6;stroke-miterlimit:10;}
	.st22{fill:none;stroke:#22293B;stroke-width:19;}
	.st23{fill:none;stroke:#22293B;stroke-width:6;stroke-miterlimit:10;}
	.st24{fill:none;stroke:#22293B;stroke-width:9;}
	.st25{fill:none;stroke:#22293B;stroke-width:21;stroke-linecap:round;stroke-linejoin:round;stroke-miterlimit:13.3333;}
	.st26{fill:none;stroke:#4CBFA5;stroke-width:21;stroke-linecap:round;stroke-linejoin:round;stroke-miterlimit:13.3333;}
</style>
<g>
	<path class="st1" d="M889.47,874.24 M887,852"/>
	<path class="st3" d="M584.3,485.04v-62.12c0-20.59-16.69-37.27-37.27-37.27c-20.59,0-37.27,16.69-37.27,37.27v62.12 M745.82,559.58
		v-74.55h49.7v-24.85L547.03,273.82 M547.03,273.82L298.55,460.19v24.85h49.7V761 M628,596.86H484.91v198.79H441 M385.52,485.04
		h323.03 M596.73,677.61c0-65.19,52.84-118.03,118.03-118.03c65.19,0,118.03,52.84,118.03,118.03
		c0,65.19-52.84,118.03-118.03,118.03C649.57,795.64,596.73,742.8,596.73,677.61L596.73,677.61z"/>
	<line class="st1" x1="785.23" y1="770" x2="889.47" y2="874.24"/>
	<path class="st12" d="M365.31,915.75l12.61-4.83l-6.24-15.66l12.77-4.89l-6.27-13.22l10.62-4.88l7.18-23.1
		c4.79-0.4,9.51-1.46,14.07-3.15c5.07-1.88,9.82-4.51,14.12-7.8c8.94-6.85,15.44-16.17,18.79-26.96c2.14-6.89,2.88-13.98,2.2-21.08
		c-0.55-5.68-1.98-11.15-4.28-16.32c0.12-0.07,0.23-0.13,0.35-0.2c5.52-3.23,10.29-7.49,14.18-12.66
		c3.89-5.16,6.67-10.92,8.26-17.12c1.54-5.98,1.9-12.12,1.09-18.24c-0.81-6.12-2.76-11.91-5.8-17.22
		c-3.14-5.5-7.31-10.23-12.4-14.06c-5.08-3.83-10.78-6.54-16.93-8.04c-5.94-1.45-12.04-1.73-18.15-0.83
		c-6.11,0.91-11.9,2.95-17.23,6.07c-5.52,3.23-10.29,7.49-14.18,12.65c-4.08,5.41-6.93,11.46-8.47,17.99
		c-1.36,5.75-1.65,11.59-0.86,17.41l-46.71,30.65l4.81,28.52l-78.06,51.23l-0.55,0.36l-9.77,18.13l5.79,9.02l29.38,2.14l4.99-15.21
		l12.33,4.29l5.18-15.78l12.49,4.35l3.63-13.96l10.86,3l24.11-15.82l5.61,3.78c1.34,1.32,2.76,2.58,4.23,3.75l-27.02,86.88
		l4.12,20.47l10.45,3.14l24.68-17.72L365.31,915.75L365.31,915.75z M384.14,707.3c14.18-18.82,40.8-22.77,59.34-8.8
		s22.08,40.64,7.9,59.46c-3.57,4.74-7.94,8.54-12.76,11.34c-3.1-5.51-7.11-10.34-11.93-14.38c-5.42-4.54-11.63-7.88-18.46-9.93
		c-5.36-1.61-10.88-2.35-16.44-2.21l-7.65-11.91l-8.57,5.63C374.78,726.15,377.82,715.69,384.14,707.3L384.14,707.3z M324.35,840.84
		l-13.67-3.77l-3.55,13.62l-12.17-4.23l-5.18,15.78l-12.33-4.29l-5.37,16.36l-22.86-1.67l-2.82-4.38l7.7-14.29l80.35-52.74
		l-4.81-28.52l52.94-34.74l3.39,5.28c-0.21,0.03-0.42,0.06-0.62,0.09c-0.03,0-0.06,0.01-0.09,0.01c-0.3,0.04-0.6,0.09-0.89,0.14
		c-0.08,0.01-0.17,0.03-0.25,0.04c-0.23,0.04-0.46,0.08-0.68,0.12c-0.08,0.01-0.16,0.03-0.24,0.05c-0.3,0.06-0.59,0.11-0.89,0.18
		c-0.03,0.01-0.06,0.01-0.09,0.02c-0.27,0.06-0.54,0.12-0.8,0.18c-0.09,0.02-0.17,0.04-0.26,0.06c-0.23,0.05-0.46,0.11-0.7,0.17
		c-0.07,0.02-0.14,0.03-0.21,0.05c-0.29,0.07-0.59,0.15-0.88,0.23c-0.06,0.02-0.12,0.03-0.18,0.05c-0.24,0.07-0.47,0.13-0.71,0.2
		c-0.09,0.02-0.17,0.05-0.26,0.07c-0.25,0.07-0.49,0.15-0.74,0.22c-0.05,0.02-0.09,0.03-0.14,0.04c-0.29,0.09-0.58,0.18-0.86,0.28
		c-0.08,0.03-0.15,0.05-0.23,0.08c-0.22,0.08-0.44,0.15-0.66,0.23c-0.08,0.03-0.17,0.06-0.25,0.09c-0.29,0.1-0.57,0.21-0.86,0.31
		c-1.26,0.47-2.5,0.99-3.72,1.55c-3.66,1.69-7.13,3.79-10.34,6.26c-3.89,2.99-7.32,6.46-10.23,10.31c-1.66,2.2-3.15,4.53-4.46,6.96
		c-1.63,3.05-2.99,6.26-4.03,9.62c-0.65,2.07-1.16,4.17-1.55,6.28c-0.11,0.6-0.21,1.21-0.3,1.82c-0.09,0.61-0.17,1.21-0.24,1.82
		c-0.73,6.38-0.31,12.84,1.27,19.08c0.08,0.32,0.17,0.64,0.26,0.97c0.03,0.1,0.05,0.2,0.08,0.3c0.06,0.22,0.13,0.44,0.19,0.67
		c0.03,0.11,0.07,0.23,0.1,0.35c0.06,0.21,0.13,0.42,0.19,0.63c0.04,0.11,0.07,0.23,0.11,0.34c0.07,0.23,0.15,0.45,0.22,0.68
		c0.03,0.09,0.06,0.18,0.09,0.27c0.11,0.31,0.22,0.62,0.33,0.93c0.02,0.06,0.04,0.11,0.06,0.17c0.09,0.25,0.19,0.51,0.29,0.76
		c0.04,0.11,0.08,0.21,0.13,0.32c0.08,0.2,0.16,0.4,0.24,0.6c0.05,0.12,0.1,0.23,0.14,0.35c0.08,0.2,0.16,0.39,0.25,0.59
		c0.05,0.11,0.1,0.22,0.14,0.33c0.1,0.23,0.2,0.45,0.3,0.67c0.04,0.08,0.07,0.16,0.11,0.23c0.14,0.3,0.28,0.59,0.42,0.88
		c0.04,0.08,0.08,0.16,0.12,0.25c0.1,0.21,0.21,0.43,0.32,0.64c0.06,0.11,0.11,0.22,0.17,0.33c0.1,0.19,0.19,0.37,0.29,0.56
		c0.06,0.11,0.12,0.22,0.18,0.34c0.1,0.19,0.21,0.38,0.31,0.56c0.06,0.1,0.11,0.21,0.17,0.31c0.13,0.23,0.27,0.47,0.4,0.7
		c0.03,0.05,0.06,0.1,0.09,0.15c0.17,0.28,0.33,0.56,0.5,0.84c0.05,0.09,0.11,0.18,0.17,0.27c0.12,0.19,0.24,0.38,0.36,0.57
		c0.03,0.04,0.05,0.08,0.08,0.13L324.35,840.84L324.35,840.84z M345.78,942.95l-5.18-1.56l-3.27-16.22l27.7-89.06l-1.45-1.07
		c-1.85-1.36-3.63-2.89-5.28-4.54c-12.58-12.55-17.08-31.02-11.74-48.2c6.06-19.48,23.72-33.29,43.94-34.37
		c5.47-0.29,10.92,0.37,16.19,1.95c11.67,3.51,21.32,11.19,27.33,21.72c-5.45,2.35-11.32,3.53-17.19,3.5
		c0.8-5.53-1.31-11.29-6.03-14.85c-6.92-5.22-16.87-3.74-22.16,3.29c-5.3,7.03-3.97,16.99,2.95,22.21
		c6.92,5.22,16.87,3.74,22.16-3.29c0.54-0.72,1.02-1.48,1.42-2.26c2.93,0.11,5.89-0.04,8.84-0.48c4.27-0.63,8.39-1.82,12.3-3.55
		c4.63,10.57,5.28,22.38,1.79,33.62c-6.08,19.56-23.81,33.37-44.11,34.38l-1.8,0.09l-7.56,24.32l-13.29,6.1l6.11,12.9l-12.45,4.77
		l6.24,15.66l-12.61,4.83l6.46,16.22L345.78,942.95L345.78,942.95z M392.4,767.02c0.1-0.14,0.19-0.28,0.3-0.41
		c3.59-4.76,10.32-5.76,15.01-2.23c3.29,2.48,4.71,6.54,4.03,10.39C404.93,773.9,398.27,771.35,392.4,767.02L392.4,767.02z
		 M409.53,779.66c-3.63,4.56-10.22,5.47-14.83,2c-3.07-2.32-4.52-6.01-4.14-9.62c4.67,3.22,9.81,5.53,15.32,6.88
		C407.09,779.21,408.3,779.46,409.53,779.66L409.53,779.66z"/>
	<path class="st21" d="M365.31,915.75l12.61-4.83l-6.24-15.66l12.77-4.89l-6.27-13.22l10.62-4.88l7.18-23.1
		c4.79-0.4,9.51-1.46,14.07-3.15c5.07-1.88,9.82-4.51,14.12-7.8c8.94-6.85,15.44-16.17,18.79-26.96c2.14-6.89,2.88-13.98,2.2-21.08
		c-0.55-5.68-1.98-11.15-4.28-16.32c0.12-0.07,0.23-0.13,0.35-0.2c5.52-3.23,10.29-7.49,14.18-12.66
		c3.89-5.16,6.67-10.92,8.26-17.12c1.54-5.98,1.9-12.12,1.09-18.24c-0.81-6.12-2.76-11.91-5.8-17.22
		c-3.14-5.5-7.31-10.23-12.4-14.06c-5.08-3.83-10.78-6.54-16.93-8.04c-5.94-1.45-12.04-1.73-18.15-0.83
		c-6.11,0.91-11.9,2.95-17.23,6.07c-5.52,3.23-10.29,7.49-14.18,12.65c-4.08,5.41-6.93,11.46-8.47,17.99
		c-1.36,5.75-1.65,11.59-0.86,17.41l-46.71,30.65l4.81,28.52l-78.06,51.23l-0.55,0.36l-9.77,18.13l5.79,9.02l29.38,2.14l4.99-15.21
		l12.33,4.29l5.18-15.78l12.49,4.35l3.63-13.96l10.86,3l24.11-15.82l5.61,3.78c1.34,1.32,2.76,2.58,4.23,3.75l-27.02,86.88
		l4.12,20.47l10.45,3.14l24.68-17.72L365.31,915.75L365.31,915.75z M384.14,707.3c14.18-18.82,40.8-22.77,59.34-8.8
		s22.08,40.64,7.9,59.46c-3.57,4.74-7.94,8.54-12.76,11.34c-3.1-5.51-7.11-10.34-11.93-14.38c-5.42-4.54-11.63-7.88-18.46-9.93
		c-5.36-1.61-10.88-2.35-16.44-2.21l-7.65-11.91l-8.57,5.63C374.78,726.15,377.82,715.69,384.14,707.3L384.14,707.3z M324.35,840.84
		l-13.67-3.77l-3.55,13.62l-12.17-4.23l-5.18,15.78l-12.33-4.29l-5.37,16.36l-22.86-1.67l-2.82-4.38l7.7-14.29l80.35-52.74
		l-4.81-28.52l52.94-34.74l3.39,5.28c-0.21,0.03-0.42,0.06-0.62,0.09c-0.03,0-0.06,0.01-0.09,0.01c-0.3,0.04-0.6,0.09-0.89,0.14
		c-0.08,0.01-0.17,0.03-0.25,0.04c-0.23,0.04-0.46,0.08-0.68,0.12c-0.08,0.01-0.16,0.03-0.24,0.05c-0.3,0.06-0.59,0.11-0.89,0.18
		c-0.03,0.01-0.06,0.01-0.09,0.02c-0.27,0.06-0.54,0.12-0.8,0.18c-0.09,0.02-0.17,0.04-0.26,0.06c-0.23,0.05-0.46,0.11-0.7,0.17
		c-0.07,0.02-0.14,0.03-0.21,0.05c-0.29,0.07-0.59,0.15-0.88,0.23c-0.06,0.02-0.12,0.03-0.18,0.05c-0.24,0.07-0.47,0.13-0.71,0.2
		c-0.09,0.02-0.17,0.05-0.26,0.07c-0.25,0.07-0.49,0.15-0.74,0.22c-0.05,0.02-0.09,0.03-0.14,0.04c-0.29,0.09-0.58,0.18-0.86,0.28
		c-0.08,0.03-0.15,0.05-0.23,0.08c-0.22,0.08-0.44,0.15-0.66,0.23c-0.08,0.03-0.17,0.06-0.25,0.09c-0.29,0.1-0.57,0.21-0.86,0.31
		c-1.26,0.47-2.5,0.99-3.72,1.55c-3.66,1.69-7.13,3.79-10.34,6.26c-3.89,2.99-7.32,6.46-10.23,10.31c-1.66,2.2-3.15,4.53-4.46,6.96
		c-1.63,3.05-2.99,6.26-4.03,9.62c-0.65,2.07-1.16,4.17-1.55,6.28c-0.11,0.6-0.21,1.21-0.3,1.82c-0.09,0.61-0.17,1.21-0.24,1.82
		c-0.73,6.38-0.31,12.84,1.27,19.08c0.08,0.32,0.17,0.64,0.26,0.97c0.03,0.1,0.05,0.2,0.08,0.3c0.06,0.22,0.13,0.44,0.19,0.67
		c0.03,0.11,0.07,0.23,0.1,0.35c0.06,0.21,0.13,0.42,0.19,0.63c0.04,0.11,0.07,0.23,0.11,0.34c0.07,0.23,0.15,0.45,0.22,0.68
		c0.03,0.09,0.06,0.18,0.09,0.27c0.11,0.31,0.22,0.62,0.33,0.93c0.02,0.06,0.04,0.11,0.06,0.17c0.09,0.25,0.19,0.51,0.29,0.76
		c0.04,0.11,0.08,0.21,0.13,0.32c0.08,0.2,0.16,0.4,0.24,0.6c0.05,0.12,0.1,0.23,0.14,0.35c0.08,0.2,0.16,0.39,0.25,0.59
		c0.05,0.11,0.1,0.22,0.14,0.33c0.1,0.23,0.2,0.45,0.3,0.67c0.04,0.08,0.07,0.16,0.11,0.23c0.14,0.3,0.28,0.59,0.42,0.88
		c0.04,0.08,0.08,0.16,0.12,0.25c0.1,0.21,0.21,0.43,0.32,0.64c0.06,0.11,0.11,0.22,0.17,0.33c0.1,0.19,0.19,0.37,0.29,0.56
		c0.06,0.11,0.12,0.22,0.18,0.34c0.1,0.19,0.21,0.38,0.31,0.56c0.06,0.1,0.11,0.21,0.17,0.31c0.13,0.23,0.27,0.47,0.4,0.7
		c0.03,0.05,0.06,0.1,0.09,0.15c0.17,0.28,0.33,0.56,0.5,0.84c0.05,0.09,0.11,0.18,0.17,0.27c0.12,0.19,0.24,0.38,0.36,0.57
		c0.03,0.04,0.05,0.08,0.08,0.13L324.35,840.84L324.35,840.84z M345.78,942.95l-5.18-1.56l-3.27-16.22l27.7-89.06l-1.45-1.07
		c-1.85-1.36-3.63-2.89-5.28-4.54c-12.58-12.55-17.08-31.02-11.74-48.2c6.06-19.48,23.72-33.29,43.94-34.37
		c5.47-0.29,10.92,0.37,16.19,1.95c11.67,3.51,21.32,11.19,27.33,21.72c-5.45,2.35-11.32,3.53-17.19,3.5
		c0.8-5.53-1.31-11.29-6.03-14.85c-6.92-5.22-16.87-3.74-22.16,3.29c-5.3,7.03-3.97,16.99,2.95,22.21
		c6.92,5.22,16.87,3.74,22.16-3.29c0.54-0.72,1.02-1.48,1.42-2.26c2.93,0.11,5.89-0.04,8.84-0.48c4.27-0.63,8.39-1.82,12.3-3.55
		c4.63,10.57,5.28,22.38,1.79,33.62c-6.08,19.56-23.81,33.37-44.11,34.38l-1.8,0.09l-7.56,24.32l-13.29,6.1l6.11,12.9l-12.45,4.77
		l6.24,15.66l-12.61,4.83l6.46,16.22L345.78,942.95L345.78,942.95z M392.4,767.02c0.1-0.14,0.19-0.28,0.3-0.41
		c3.59-4.76,10.32-5.76,15.01-2.23c3.29,2.48,4.71,6.54,4.03,10.39C404.93,773.9,398.27,771.35,392.4,767.02L392.4,767.02z
		 M409.53,779.66c-3.63,4.56-10.22,5.47-14.83,2c-3.07-2.32-4.52-6.01-4.14-9.62c4.67,3.22,9.81,5.53,15.32,6.88
		C407.09,779.21,408.3,779.46,409.53,779.66L409.53,779.66z"/>
	<path class="st1" d="M806.6,750.34l104.24,104.24 M542,274.72h11"/>
</g>
</svg>
