<?xml version="1.0" encoding="UTF-8"?>
<svg id="Layer_1" data-name="Layer 1" xmlns="http://www.w3.org/2000/svg" viewBox="0 0 681.28 687.63">
  <defs>
    <style>
      .cls-1 {
        stroke-width: 6px;
      }

      .cls-1, .cls-2, .cls-3 {
        fill: none;
        stroke: #4cbfa5;
      }

      .cls-1, .cls-3 {
        stroke-miterlimit: 10;
      }

      .cls-4 {
        fill: #22293b;
      }

      .cls-2, .cls-3 {
        stroke-width: 21px;
      }
    </style>
  </defs>
  <path class="cls-3" d="M347.32,220.82v-62.12c0-20.59-16.69-37.27-37.27-37.27s-37.27,16.69-37.27,37.27v62.12m236.06,74.54v-74.55h49.7v-24.85L310.05,9.6m0,0L61.57,195.97v24.85h49.7V496.78m279.75-164.14H247.93v198.79h-43.91m-55.48-310.61H471.57m-111.82,192.57c0-65.19,52.84-118.03,118.03-118.03s118.03,52.84,118.03,118.03-52.84,118.03-118.03,118.03-118.03-52.84-118.03-118.03h0Z"/>
  <line class="cls-2" x1="548.25" y1="505.78" x2="652.49" y2="610.02"/>
  <path class="cls-4" d="M128.33,651.53l12.61-4.83-6.24-15.66,12.77-4.89-6.27-13.22,10.62-4.88,7.18-23.1c4.79-.4,9.51-1.46,14.07-3.15,5.07-1.88,9.82-4.51,14.12-7.8,8.94-6.85,15.44-16.17,18.79-26.96,2.14-6.89,2.88-13.98,2.2-21.08-.55-5.68-1.98-11.15-4.28-16.32,.12-.07,.23-.13,.35-.2,5.52-3.23,10.29-7.49,14.18-12.66,3.89-5.16,6.67-10.92,8.26-17.12,1.54-5.98,1.9-12.12,1.09-18.24s-2.76-11.91-5.8-17.22c-3.14-5.5-7.31-10.23-12.4-14.06-5.08-3.83-10.78-6.54-16.93-8.04-5.94-1.45-12.04-1.73-18.15-.83-6.11,.91-11.9,2.95-17.23,6.07-5.52,3.23-10.29,7.49-14.18,12.65-4.08,5.41-6.93,11.46-8.47,17.99-1.36,5.75-1.65,11.59-.86,17.41l-46.71,30.65,4.81,28.52-78.06,51.23-.55,.36-9.77,18.13,5.79,9.02,29.38,2.14,4.99-15.21,12.33,4.29,5.18-15.78,12.49,4.35,3.63-13.96,10.86,3,24.11-15.82,5.61,3.78c1.34,1.32,2.76,2.58,4.23,3.75l-27.02,86.88,4.12,20.47,10.45,3.14,24.68-17.72-5.98-15.08h0Zm18.83-208.45c14.18-18.82,40.8-22.77,59.34-8.8s22.08,40.64,7.9,59.46c-3.57,4.74-7.94,8.54-12.76,11.34-3.1-5.51-7.11-10.34-11.93-14.38-5.42-4.54-11.63-7.88-18.46-9.93-5.36-1.61-10.88-2.35-16.44-2.21l-7.65-11.91-8.57,5.63c-.79-10.35,2.25-20.81,8.57-29.2h0Zm-59.79,133.54l-13.67-3.77-3.55,13.62-12.17-4.23-5.18,15.78-12.33-4.29-5.37,16.36-22.86-1.67-2.82-4.38,7.7-14.29,80.35-52.74-4.81-28.52,52.94-34.74,3.39,5.28c-.21,.03-.42,.06-.62,.09-.03,0-.06,.01-.09,.01-.3,.04-.6,.09-.89,.14-.08,.01-.17,.03-.25,.04-.23,.04-.46,.08-.68,.12-.08,.01-.16,.03-.24,.05-.3,.06-.59,.11-.89,.18-.03,.01-.06,.01-.09,.02-.27,.06-.54,.12-.8,.18-.09,.02-.17,.04-.26,.06-.23,.05-.46,.11-.7,.17-.07,.02-.14,.03-.21,.05-.29,.07-.59,.15-.88,.23-.06,.02-.12,.03-.18,.05-.24,.07-.47,.13-.71,.2-.09,.02-.17,.05-.26,.07-.25,.07-.49,.15-.74,.22-.05,.02-.09,.03-.14,.04-.29,.09-.58,.18-.86,.28-.08,.03-.15,.05-.23,.08-.22,.08-.44,.15-.66,.23-.08,.03-.17,.06-.25,.09-.29,.1-.57,.21-.86,.31-1.26,.47-2.5,.99-3.72,1.55-3.66,1.69-7.13,3.79-10.34,6.26-3.89,2.99-7.32,6.46-10.23,10.31-1.66,2.2-3.15,4.53-4.46,6.96-1.63,3.05-2.99,6.26-4.03,9.62-.65,2.07-1.16,4.17-1.55,6.28-.11,.6-.21,1.21-.3,1.82s-.17,1.21-.24,1.82c-.73,6.38-.31,12.84,1.27,19.08,.08,.32,.17,.64,.26,.97,.03,.1,.05,.2,.08,.3,.06,.22,.13,.44,.19,.67,.03,.11,.07,.23,.1,.35,.06,.21,.13,.42,.19,.63,.04,.11,.07,.23,.11,.34,.07,.23,.15,.45,.22,.68,.03,.09,.06,.18,.09,.27,.11,.31,.22,.62,.33,.93,.02,.06,.04,.11,.06,.17,.09,.25,.19,.51,.29,.76,.04,.11,.08,.21,.13,.32,.08,.2,.16,.4,.24,.6,.05,.12,.1,.23,.14,.35,.08,.2,.16,.39,.25,.59,.05,.11,.1,.22,.14,.33,.1,.23,.2,.45,.3,.67,.04,.08,.07,.16,.11,.23,.14,.3,.28,.59,.42,.88,.04,.08,.08,.16,.12,.25,.1,.21,.21,.43,.32,.64,.06,.11,.11,.22,.17,.33,.1,.19,.19,.37,.29,.56,.06,.11,.12,.22,.18,.34,.1,.19,.21,.38,.31,.56,.06,.1,.11,.21,.17,.31,.13,.23,.27,.47,.4,.7,.03,.05,.06,.1,.09,.15,.17,.28,.33,.56,.5,.84,.05,.09,.11,.18,.17,.27l.36,.57s.05,.08,.08,.13l-23.34,15.29h0Zm21.43,102.11l-5.18-1.56-3.27-16.22,27.7-89.06-1.45-1.07c-1.85-1.36-3.63-2.89-5.28-4.54-12.58-12.55-17.08-31.02-11.74-48.2,6.06-19.48,23.72-33.29,43.94-34.37,5.47-.29,10.92,.37,16.19,1.95,11.67,3.51,21.32,11.19,27.33,21.72-5.45,2.35-11.32,3.53-17.19,3.5,.8-5.53-1.31-11.29-6.03-14.85-6.92-5.22-16.87-3.74-22.16,3.29-5.3,7.03-3.97,16.99,2.95,22.21,6.92,5.22,16.87,3.74,22.16-3.29,.54-.72,1.02-1.48,1.42-2.26,2.93,.11,5.89-.04,8.84-.48,4.27-.63,8.39-1.82,12.3-3.55,4.63,10.57,5.28,22.38,1.79,33.62-6.08,19.56-23.81,33.37-44.11,34.38l-1.8,.09-7.56,24.32-13.29,6.1,6.11,12.9-12.45,4.77,6.24,15.66-12.61,4.83,6.46,16.22-19.31,13.89h0Zm46.62-175.93c.1-.14,.19-.28,.3-.41,3.59-4.76,10.32-5.76,15.01-2.23,3.29,2.48,4.71,6.54,4.03,10.39-6.81-.87-13.47-3.42-19.34-7.75h0Zm17.13,12.64c-3.63,4.56-10.22,5.47-14.83,2-3.07-2.32-4.52-6.01-4.14-9.62,4.67,3.22,9.81,5.53,15.32,6.88,1.21,.29,2.42,.54,3.65,.74h0Z"/>
  <path class="cls-1" d="M128.33,651.53l12.61-4.83-6.24-15.66,12.77-4.89-6.27-13.22,10.62-4.88,7.18-23.1c4.79-.4,9.51-1.46,14.07-3.15,5.07-1.88,9.82-4.51,14.12-7.8,8.94-6.85,15.44-16.17,18.79-26.96,2.14-6.89,2.88-13.98,2.2-21.08-.55-5.68-1.98-11.15-4.28-16.32,.12-.07,.23-.13,.35-.2,5.52-3.23,10.29-7.49,14.18-12.66,3.89-5.16,6.67-10.92,8.26-17.12,1.54-5.98,1.9-12.12,1.09-18.24s-2.76-11.91-5.8-17.22c-3.14-5.5-7.31-10.23-12.4-14.06-5.08-3.83-10.78-6.54-16.93-8.04-5.94-1.45-12.04-1.73-18.15-.83-6.11,.91-11.9,2.95-17.23,6.07-5.52,3.23-10.29,7.49-14.18,12.65-4.08,5.41-6.93,11.46-8.47,17.99-1.36,5.75-1.65,11.59-.86,17.41l-46.71,30.65,4.81,28.52-78.06,51.23-.55,.36-9.77,18.13,5.79,9.02,29.38,2.14,4.99-15.21,12.33,4.29,5.18-15.78,12.49,4.35,3.63-13.96,10.86,3,24.11-15.82,5.61,3.78c1.34,1.32,2.76,2.58,4.23,3.75l-27.02,86.88,4.12,20.47,10.45,3.14,24.68-17.72-5.98-15.08h0Zm18.83-208.45c14.18-18.82,40.8-22.77,59.34-8.8s22.08,40.64,7.9,59.46c-3.57,4.74-7.94,8.54-12.76,11.34-3.1-5.51-7.11-10.34-11.93-14.38-5.42-4.54-11.63-7.88-18.46-9.93-5.36-1.61-10.88-2.35-16.44-2.21l-7.65-11.91-8.57,5.63c-.79-10.35,2.25-20.81,8.57-29.2h0Zm-59.79,133.54l-13.67-3.77-3.55,13.62-12.17-4.23-5.18,15.78-12.33-4.29-5.37,16.36-22.86-1.67-2.82-4.38,7.7-14.29,80.35-52.74-4.81-28.52,52.94-34.74,3.39,5.28c-.21,.03-.42,.06-.62,.09-.03,0-.06,.01-.09,.01-.3,.04-.6,.09-.89,.14-.08,.01-.17,.03-.25,.04-.23,.04-.46,.08-.68,.12-.08,.01-.16,.03-.24,.05-.3,.06-.59,.11-.89,.18-.03,.01-.06,.01-.09,.02-.27,.06-.54,.12-.8,.18-.09,.02-.17,.04-.26,.06-.23,.05-.46,.11-.7,.17-.07,.02-.14,.03-.21,.05-.29,.07-.59,.15-.88,.23-.06,.02-.12,.03-.18,.05-.24,.07-.47,.13-.71,.2-.09,.02-.17,.05-.26,.07-.25,.07-.49,.15-.74,.22-.05,.02-.09,.03-.14,.04-.29,.09-.58,.18-.86,.28-.08,.03-.15,.05-.23,.08-.22,.08-.44,.15-.66,.23-.08,.03-.17,.06-.25,.09-.29,.1-.57,.21-.86,.31-1.26,.47-2.5,.99-3.72,1.55-3.66,1.69-7.13,3.79-10.34,6.26-3.89,2.99-7.32,6.46-10.23,10.31-1.66,2.2-3.15,4.53-4.46,6.96-1.63,3.05-2.99,6.26-4.03,9.62-.65,2.07-1.16,4.17-1.55,6.28-.11,.6-.21,1.21-.3,1.82s-.17,1.21-.24,1.82c-.73,6.38-.31,12.84,1.27,19.08,.08,.32,.17,.64,.26,.97,.03,.1,.05,.2,.08,.3,.06,.22,.13,.44,.19,.67,.03,.11,.07,.23,.1,.35,.06,.21,.13,.42,.19,.63,.04,.11,.07,.23,.11,.34,.07,.23,.15,.45,.22,.68,.03,.09,.06,.18,.09,.27,.11,.31,.22,.62,.33,.93,.02,.06,.04,.11,.06,.17,.09,.25,.19,.51,.29,.76,.04,.11,.08,.21,.13,.32,.08,.2,.16,.4,.24,.6,.05,.12,.1,.23,.14,.35,.08,.2,.16,.39,.25,.59,.05,.11,.1,.22,.14,.33,.1,.23,.2,.45,.3,.67,.04,.08,.07,.16,.11,.23,.14,.3,.28,.59,.42,.88,.04,.08,.08,.16,.12,.25,.1,.21,.21,.43,.32,.64,.06,.11,.11,.22,.17,.33,.1,.19,.19,.37,.29,.56,.06,.11,.12,.22,.18,.34,.1,.19,.21,.38,.31,.56,.06,.1,.11,.21,.17,.31,.13,.23,.27,.47,.4,.7,.03,.05,.06,.1,.09,.15,.17,.28,.33,.56,.5,.84,.05,.09,.11,.18,.17,.27l.36,.57s.05,.08,.08,.13l-23.34,15.29h0Zm21.43,102.11l-5.18-1.56-3.27-16.22,27.7-89.06-1.45-1.07c-1.85-1.36-3.63-2.89-5.28-4.54-12.58-12.55-17.08-31.02-11.74-48.2,6.06-19.48,23.72-33.29,43.94-34.37,5.47-.29,10.92,.37,16.19,1.95,11.67,3.51,21.32,11.19,27.33,21.72-5.45,2.35-11.32,3.53-17.19,3.5,.8-5.53-1.31-11.29-6.03-14.85-6.92-5.22-16.87-3.74-22.16,3.29-5.3,7.03-3.97,16.99,2.95,22.21,6.92,5.22,16.87,3.74,22.16-3.29,.54-.72,1.02-1.48,1.42-2.26,2.93,.11,5.89-.04,8.84-.48,4.27-.63,8.39-1.82,12.3-3.55,4.63,10.57,5.28,22.38,1.79,33.62-6.08,19.56-23.81,33.37-44.11,34.38l-1.8,.09-7.56,24.32-13.29,6.1,6.11,12.9-12.45,4.77,6.24,15.66-12.61,4.83,6.46,16.22-19.31,13.89h0Zm46.62-175.93c.1-.14,.19-.28,.3-.41,3.59-4.76,10.32-5.76,15.01-2.23,3.29,2.48,4.71,6.54,4.03,10.39-6.81-.87-13.47-3.42-19.34-7.75h0Zm17.13,12.64c-3.63,4.56-10.22,5.47-14.83,2-3.07-2.32-4.52-6.01-4.14-9.62,4.67,3.22,9.81,5.53,15.32,6.88,1.21,.29,2.42,.54,3.65,.74h0Z"/>
  <path class="cls-2" d="M569.62,486.12l104.24,104.24M305.02,10.5h11"/>
</svg>