<svg id="Layer_1" data-name="Layer 1" xmlns="http://www.w3.org/2000/svg" xmlns:xlink="http://www.w3.org/1999/xlink" viewBox="0 0 1080 1080"><defs><style>.cls-1,.cls-3{fill:none;}.cls-2{clip-path:url(#clip-path);}.cls-3{stroke:#21293b;stroke-linecap:round;stroke-linejoin:round;stroke-width:10px;}</style><clipPath id="clip-path"><rect class="cls-1" x="167.96" y="258.05" width="750.28" height="507.73"/></clipPath></defs><g class="cls-2"><path class="cls-3" d="M595.68,516.12a9.43,9.43,0,1,1-9.43-9.43A9.43,9.43,0,0,1,595.68,516.12ZM237.13,588.37l149,19.9M227.48,353.09,173,391.59m285.55-1.39,36.79,44.44m-29,21.7,6.52-48.84-118.73-144-69.22,49.23,5.82-43.55-46.1-6.16-11.51,86.17L201.73,371.3l-27.91,209L274.48,593.7l16-119.53,69.77,9.32L344.25,603l100.66,13.44,14.14-103.79m128.57,2.17a95,95,0,0,1-157.86-71.32c0-1.89.05-3.77.16-5.63m176-44a95.08,95.08,0,0,0-140.24-24.76M700.88,556,712,563.11l7.3,4.65,25.66,5.4a15.66,15.66,0,0,1,9.31,5.93l15.72,21,29.13,4.14a5.79,5.79,0,0,1,5.51,3.52l16,24.66,24.84,6a22.85,22.85,0,0,1,10.5,5.79l9,14.54a15.32,15.32,0,0,0,13.83,4l34.37-7.3-8.3-36.1a15.32,15.32,0,0,0-6.68-9.46L722.89,498.05l-.52-.59A87.42,87.42,0,0,0,553.28,453.2m-37,84.82a87.42,87.42,0,0,0,121.34,69.4l1.48,1.51,18.25,18.24,6.12,6.12,23.88,10.82a15.7,15.7,0,0,1,7.81,7.8l10.81,23.89,27.55,10.34a5.76,5.76,0,0,1,4.62,4.62l10.34,27.54,22.95,11.25a22.84,22.84,0,0,1,9,7.91l5.68,16.15a15.27,15.27,0,0,0,12.64,6.88l35.14.3-.31-37a15.33,15.33,0,0,0-4.48-10.68L682,566l-.38-.69a87.41,87.41,0,1,0-161.55-65.87"/></g></svg>