<svg height="47.837" viewBox="0 0 185.6 47.837" width="185.6" xmlns="http://www.w3.org/2000/svg">
    <path
        d="m177.617 8.849h7.27l.713 30.188h-7.403l-.16-7.015h-11.328l-5.549 7.015h-7.446zm-7.411 17.786h8.472l-.185-10.545zm-26.068-17.786h7.268l.714 30.188h-7.404l-.159-7.015h-11.327l-5.549 7.015h-7.448zm-7.412 17.786h8.473l-.187-10.545zm-32.91-17.998h16.814c1.426 0 2.585.085 3.471.249s1.586.438 2.105.791c.891.609 1.439 1.542 1.619 2.807.181 1.266-.006 2.625-.561 4.073-.299.781-.705 1.55-1.212 2.286-.506.736-1.068 1.426-1.682 2.059-.616.632-1.288 1.201-2.013 1.697-.724.495-1.454.883-2.182 1.154 2.373 1.328 2.91 3.682 1.613 7.061-.693 1.807-1.667 3.35-2.91 4.615-1.244 1.266-2.673 2.174-4.276 2.717-1.332.45-3.312.679-5.926.679h-16.456zm10.192 12.401c.892 0 1.558-.047 2.007-.136.448-.089.931-.286 1.43-.589.536-.327 1.038-.763 1.492-1.289.453-.528.8-1.096 1.031-1.697.462-1.206.38-2.109-.26-2.671-.285-.25-.633-.409-1.014-.498-.38-.089-.999-.136-1.857-.136h-8.711l-2.696 7.016zm-4.765 12.401c.923 0 1.603-.046 2.053-.136.451-.091.931-.285 1.431-.588.535-.327 1.037-.764 1.49-1.29.454-.527.801-1.096 1.031-1.698.463-1.205.382-2.106-.259-2.67-.287-.25-.641-.407-1.036-.498-.395-.09-1.022-.136-1.881-.136h-8.71l-2.696 7.016zm-17.18-6.848h-17.705l-4.78 12.446h-6.378l6.05-15.75c.753-1.962 1.513-3.689 2.28-5.183.767-1.492 1.487-2.632 2.145-3.417 2.417-2.866 5.486-4.662 9.197-5.385.451-.091.866-.167 1.247-.227.38-.06.776-.106 1.189-.137.412-.029.883-.051 1.408-.067.527-.014 1.161-.022 1.905-.022h10.257l-2.068 5.385h-9.456c-1.278 0-2.47.069-3.578.204-1.108.136-1.96.325-2.559.566-1.907.785-3.295 2.308-4.165 4.571l-.625 1.63h17.705z"></path>
    <path d="m34.762 44.393 8.111.148c-9.324 6.802-7.667 1.181-8.111-.148"></path>
    <path
        d="m.081 37.249c0 .03.001.059.001.089 22.294-2.698 32.256-3.104 34.775 4.823 2.756.11 6.505.219 9.259.329 9.483-4.962 24.059-18.395 4.49-18.395-18.528 0-37.007 5.338-48.525 13.154"></path>
    <path
        d="m53.701 3.246c-21.698 11.058-4.997-5.723-13.566-2.926-13.393 4.369-34.566 18.321-40.135 36.522l.124-.139c6.556-11.754 28.556-21.839 50.529-27.32 3.617-.902 6.351-1.535 8.427-1.662-.414-1.16-1.19-2.375-1.89-3.937-.753-1.677-1.69-1.456-3.489-.538"></path>
    <path
        d="m3.2 34.237c13.157-8.987 36.574-14.61 53.146-14.536 6.007-.119 4.314-4.791 3.981-7.046-11.016-.513-47.777 9.986-57.127 21.582"></path>
</svg>