<?xml version="1.0" encoding="utf-8"?>
<!-- Generator: Adobe Illustrator 25.4.0, SVG Export Plug-In . SVG Version: 6.00 Build 0)  -->
<svg version="1.1" id="Layer_1" xmlns="http://www.w3.org/2000/svg" xmlns:xlink="http://www.w3.org/1999/xlink" x="0px" y="0px"
	 viewBox="0 0 1080 1080" style="enable-background:new 0 0 1080 1080;" xml:space="preserve">
<style type="text/css">
	.st0{fill:none;stroke:#22293B;stroke-width:21;}
	.st1{fill:none;stroke:#4CBFA5;stroke-width:21;}
	.st2{fill:none;stroke:#22293B;stroke-width:22;}
	.st3{fill:none;stroke:#4CBFA5;stroke-width:21;stroke-miterlimit:10;}
	.st4{fill:none;stroke:#22293B;stroke-width:21;stroke-miterlimit:10;}
	.st5{fill:none;stroke:#22293B;stroke-width:25;stroke-miterlimit:10;}
	.st6{fill:none;stroke:#4CBFA5;stroke-width:25;stroke-miterlimit:10;}
	.st7{fill:#FFFFFF;}
	.st8{fill:none;stroke:#4CBFA5;stroke-width:11;stroke-miterlimit:10;}
	.st9{fill:#4CBFA5;}
	.st10{fill:none;stroke:#4CBFA5;stroke-width:17;stroke-miterlimit:10;}
	.st11{fill:none;stroke:#22293B;stroke-width:11;stroke-miterlimit:10;}
	.st12{fill:#22293B;}
	.st13{fill:none;stroke:#22293B;stroke-width:17;stroke-miterlimit:10;}
	.st14{fill:none;stroke:#4CBFA5;stroke-width:21;stroke-linecap:round;stroke-linejoin:round;stroke-miterlimit:10;}
	.st15{fill:none;stroke:#4CBFA5;}
	.st16{fill:none;stroke:#4CBFA5;stroke-width:14;stroke-miterlimit:10;}
	.st17{fill:none;stroke:#22293B;stroke-width:20;stroke-miterlimit:10;}
	.st18{fill:none;stroke:#22293B;stroke-width:20;stroke-linecap:round;stroke-linejoin:round;stroke-miterlimit:10;}
	.st19{fill:none;stroke:#22293B;stroke-width:2;}
	.st20{fill:none;stroke:#1B1C1C;stroke-width:13;stroke-miterlimit:10;}
	.st21{fill:none;stroke:#4CBFA5;stroke-width:6;stroke-miterlimit:10;}
	.st22{fill:none;stroke:#22293B;stroke-width:19;}
	.st23{fill:none;stroke:#22293B;stroke-width:6;stroke-miterlimit:10;}
	.st24{fill:none;stroke:#22293B;stroke-width:9;}
	.st25{fill:none;stroke:#22293B;stroke-width:21;stroke-linecap:round;stroke-linejoin:round;stroke-miterlimit:13.3333;}
	.st26{fill:none;stroke:#4CBFA5;stroke-width:21;stroke-linecap:round;stroke-linejoin:round;stroke-miterlimit:13.3333;}
</style>
<g>
	<path class="st17" d="M445.83,513.23l-120.8-205.89l84.04-49.03l119.65,209.52 M593.85,469.81l129.07-211.5l84.04,49.03
		L682.66,519.15 M674.36,343.29H457.64 M409.08,258.31h313.85"/>
	<path class="st18" d="M749.82,612.93c-3.34-14.51-14.52-25.14-28.04-28.52c6.16-12.33,5.46-27.57-3.16-39.52
		c-8.35-11.58-21.98-17.07-35.22-15.62c0.42-13.16-5.93-26.19-17.9-33.69c-12.62-7.9-28.05-7.51-39.99-0.34
		c-4.36-13.08-15.63-23.35-30.18-25.71c-14.09-2.28-27.61,3.47-35.95,13.86c-9.01-9.6-22.72-14.32-36.48-11.16
		c-14.51,3.34-25.14,14.52-28.52,28.04c-12.33-6.16-27.57-5.46-39.52,3.17c-11.57,8.35-17.07,21.97-15.62,35.22
		c-13.16-0.42-26.19,5.93-33.69,17.9c-7.9,12.62-7.51,28.05-0.34,39.99c-13.08,4.36-23.35,15.63-25.71,30.18
		c-2.28,14.09,3.47,27.61,13.86,35.95c-9.6,9.01-14.32,22.72-11.16,36.48c3.34,14.51,14.52,25.14,28.04,28.52
		c-6.17,12.33-5.46,27.57,3.16,39.52c8.35,11.58,21.98,17.07,35.22,15.62c-0.42,13.16,5.94,26.19,17.9,33.69
		c12.62,7.9,28.05,7.51,39.99,0.34c4.36,13.08,15.63,23.35,30.18,25.71c14.09,2.28,27.61-3.47,35.95-13.86
		c9.01,9.61,22.72,14.32,36.48,11.16c14.51-3.34,25.14-14.52,28.52-28.04c12.33,6.16,27.57,5.46,39.52-3.17
		c11.58-8.35,17.07-21.97,15.62-35.22c13.16,0.42,26.19-5.93,33.69-17.9c7.9-12.62,7.51-28.05,0.34-39.99
		c13.08-4.36,23.35-15.63,25.71-30.18c2.28-14.09-3.47-27.61-13.86-35.95C748.26,640.39,752.98,626.69,749.82,612.93L749.82,612.93z
		 M596.12,790.78c-74.31,17.09-148.41-29.31-165.49-103.62c-17.08-74.31,29.31-148.41,103.62-165.49s148.41,29.31,165.49,103.62
		C716.83,699.6,670.44,773.7,596.12,790.78L596.12,790.78z"/>
	<path class="st12" d="M595.99,631.93c0,4.67,1.69,8.06,7.07,12.79c4.2,3.68,5.49,5.9,5.49,8.88c0,2.92-1.28,3.97-3.33,3.97
		c-2.04,0-3.33-1.05-3.33-3.97v-2.92h-6.07v2.51c0,6.54,3.27,10.28,9.58,10.28s9.58-3.74,9.58-10.28c0-4.67-1.69-8.06-7.07-12.79
		c-4.2-3.68-5.49-5.9-5.49-8.88c0-2.92,1.17-4.03,3.21-4.03c2.04,0,3.21,1.11,3.21,4.03v1.69h6.07v-1.28
		c0-6.54-3.21-10.28-9.46-10.28C599.2,621.66,595.99,625.4,595.99,631.93L595.99,631.93z M616.77,627.97h6.71V663h6.42v-35.03h6.71
		v-5.84h-19.85V627.97L616.77,627.97z"/>
	<path class="st19" d="M595.99,631.93c0,4.67,1.69,8.06,7.07,12.79c4.2,3.68,5.49,5.9,5.49,8.88c0,2.92-1.28,3.97-3.33,3.97
		c-2.04,0-3.33-1.05-3.33-3.97v-2.92h-6.07v2.51c0,6.54,3.27,10.28,9.58,10.28s9.58-3.74,9.58-10.28c0-4.67-1.69-8.06-7.07-12.79
		c-4.2-3.68-5.49-5.9-5.49-8.88c0-2.92,1.17-4.03,3.21-4.03c2.04,0,3.21,1.11,3.21,4.03v1.69h6.07v-1.28
		c0-6.54-3.21-10.28-9.46-10.28C599.2,621.66,595.99,625.4,595.99,631.93L595.99,631.93z M616.77,627.97h6.71V663h6.42v-35.03h6.71
		v-5.84h-19.85V627.97L616.77,627.97z"/>
	<path class="st20" d="M510.83,612.63c11.21-5.57,20.06-8.74,34.41-26.03h35v112.46h18.28v26.43h-78.65v-26.43h19.66v-73.71
		l-19.66,9.34L510.83,612.63L510.83,612.63z"/>
</g>
</svg>
