<svg id="Layer_1" data-name="Layer 1" xmlns="http://www.w3.org/2000/svg" xmlns:xlink="http://www.w3.org/1999/xlink" viewBox="0 0 1080 1080"><defs><style>.cls-1,.cls-3{fill:none;}.cls-2{clip-path:url(#clip-path);}.cls-3{stroke:#4cbfa5;stroke-miterlimit:10;stroke-width:9px;}</style><clipPath id="clip-path"><rect class="cls-1" x="287.29" y="309.98" width="469.42" height="512.03"/></clipPath></defs><g class="cls-2"><path class="cls-3" d="M677.26,784.06V750.61m75,66.91H602.31V694.85h149.9ZM634.43,694.85V650.24c0-24.63,19.17-44.6,42.83-44.6s42.83,20,42.83,44.6m-353.35-145h278.4M452.4,784.06V605.64H559.48V784.06M677.26,605.64V505.27h42.83V483L505.94,315.69,291.79,483v22.3h42.83V784.06H602.31M538.06,505.27V449.51c0-18.47-14.38-33.45-32.12-33.45s-32.12,15-32.12,33.45v55.76"/></g></svg>