<?xml version="1.0" encoding="utf-8"?>
<!-- Generator: Adobe Illustrator 25.4.0, SVG Export Plug-In . SVG Version: 6.00 Build 0)  -->
<svg version="1.1" id="Layer_1" xmlns="http://www.w3.org/2000/svg" xmlns:xlink="http://www.w3.org/1999/xlink" x="0px" y="0px"
	 viewBox="0 0 1080 1080" style="enable-background:new 0 0 1080 1080;" xml:space="preserve">
<style type="text/css">
	.st0{fill:none;stroke:#22293B;stroke-width:21;}
	.st1{fill:none;stroke:#4CBFA5;stroke-width:21;}
	.st2{fill:none;stroke:#22293B;stroke-width:22;}
	.st3{fill:none;stroke:#4CBFA5;stroke-width:21;stroke-miterlimit:10;}
	.st4{fill:none;stroke:#22293B;stroke-width:21;stroke-miterlimit:10;}
	.st5{fill:none;stroke:#22293B;stroke-width:25;stroke-miterlimit:10;}
	.st6{fill:none;stroke:#4CBFA5;stroke-width:25;stroke-miterlimit:10;}
	.st7{fill:#FFFFFF;}
	.st8{fill:none;stroke:#4CBFA5;stroke-width:11;stroke-miterlimit:10;}
	.st9{fill:#4CBFA5;}
	.st10{fill:none;stroke:#4CBFA5;stroke-width:17;stroke-miterlimit:10;}
	.st11{fill:none;stroke:#22293B;stroke-width:11;stroke-miterlimit:10;}
	.st12{fill:#22293B;}
	.st13{fill:none;stroke:#22293B;stroke-width:17;stroke-miterlimit:10;}
	.st14{fill:none;stroke:#4CBFA5;stroke-width:21;stroke-linecap:round;stroke-linejoin:round;stroke-miterlimit:10;}
	.st15{fill:none;stroke:#4CBFA5;}
	.st16{fill:none;stroke:#4CBFA5;stroke-width:14;stroke-miterlimit:10;}
	.st17{fill:none;stroke:#22293B;stroke-width:20;stroke-miterlimit:10;}
	.st18{fill:none;stroke:#22293B;stroke-width:20;stroke-linecap:round;stroke-linejoin:round;stroke-miterlimit:10;}
	.st19{fill:none;stroke:#22293B;stroke-width:2;}
	.st20{fill:none;stroke:#1B1C1C;stroke-width:13;stroke-miterlimit:10;}
	.st21{fill:none;stroke:#4CBFA5;stroke-width:6;stroke-miterlimit:10;}
	.st22{fill:none;stroke:#22293B;stroke-width:19;}
	.st23{fill:none;stroke:#22293B;stroke-width:6;stroke-miterlimit:10;}
	.st24{fill:none;stroke:#22293B;stroke-width:9;}
	.st25{fill:none;stroke:#22293B;stroke-width:21;stroke-linecap:round;stroke-linejoin:round;stroke-miterlimit:13.3333;}
	.st26{fill:none;stroke:#4CBFA5;stroke-width:21;stroke-linecap:round;stroke-linejoin:round;stroke-miterlimit:13.3333;}
</style>
<g>
	<path class="st4" d="M722.72,592.78c0,21.85,40.09,39.56,89.54,39.56c49.45,0,89.54-17.71,89.54-39.56 M722.72,543.33
		c0,21.85,40.09,39.56,89.54,39.56c49.45,0,89.54-17.71,89.54-39.56c0-21.85-40.09-39.56-89.54-39.56
		C762.81,503.77,722.72,521.48,722.72,543.33L722.72,543.33z M901.8,543.33v148.36c0,21.85-40.09,39.56-89.54,39.56
		c-49.45,0-89.54-17.71-89.54-39.56V543.33 M722.72,642.24c0,21.85,40.09,39.56,89.54,39.56c49.45,0,89.54-17.71,89.54-39.56
		 M464.44,632.68c0,21.98,40.09,39.79,89.54,39.79c49.45,0,89.54-17.82,89.54-39.79 M464.44,582.94c0,21.98,40.09,39.79,89.54,39.79
		c49.45,0,89.54-17.82,89.54-39.79c0-21.98-40.09-39.79-89.54-39.79C504.52,543.14,464.44,560.96,464.44,582.94L464.44,582.94z
		 M643.56,582.51v102.93 M464.44,682.42c0,21.98,40.09,39.79,89.54,39.79c49.45,0,89.54-17.82,89.54-39.79 M464.49,685.44
		l-0.05-102.5 M206.2,678.37c0,21.77,40.09,39.41,89.54,39.41c49.45,0,89.54-17.65,89.54-39.41 M206.2,629.1
		c0,21.77,40.09,39.41,89.54,39.41c49.45,0,89.54-17.65,89.54-39.41c0-21.77-40.09-39.41-89.54-39.41
		C246.29,589.69,206.2,607.34,206.2,629.1L206.2,629.1z M385.28,629.1v49.85 M206.2,680.06V629.1"/>
	<line class="st4" x1="295.74" y1="521.25" x2="812.26" y2="392.88"/>
	<polygon class="st12" points="794.17,362 849,387.61 812.26,435 794.17,362 	"/>
	<polygon class="st4" points="794.17,362 849,387.61 812.26,435 794.17,362 	"/>
</g>
</svg>
