<svg id="Layer_1" data-name="Layer 1" xmlns="http://www.w3.org/2000/svg" xmlns:xlink="http://www.w3.org/1999/xlink" viewBox="0 0 1080 1080"><defs><style>.cls-1,.cls-3{fill:none;}.cls-2{clip-path:url(#clip-path);}.cls-3{stroke:#21293b;stroke-width:9px;}</style><clipPath id="clip-path"><rect class="cls-1" x="206.45" y="291.68" width="663.1" height="524.63"/></clipPath></defs><g class="cls-2"><path class="cls-3" d="M351.39,435.75s-76.58,57.7-140.44,57.7v146.3c0,30.41,12.81,57.76,34.26,73.17,22.4,16.09,89.31,59,92.14,60.78l14,9,14-9c2.84-1.82,69.74-44.69,92.15-60.78,21.45-15.41,34.25-42.76,34.25-73.17V493.45C428,493.45,351.39,435.75,351.39,435.75Zm-61,165.45,49.56,48.16,81-78.73M704.27,392.25c34.14,0,61.91,27,61.91,60.17M262,436.47c8.24-78.69,76.83-140.29,160-140.29,59.62,0,113.47,32.2,141.18,81.48,27.7-49.28,81.55-81.48,141.18-81.48,88.65,0,160.78,70.09,160.78,156.24,0,178.56-282.48,347.18-294.51,354.27l-7.45,4.4-7.46-4.4c-3.88-2.29-36-21.42-77.64-52.3"/></g></svg>