<?xml version="1.0" encoding="utf-8"?>
<!-- Generator: Adobe Illustrator 25.4.0, SVG Export Plug-In . SVG Version: 6.00 Build 0)  -->
<svg version="1.1" id="Layer_1" xmlns="http://www.w3.org/2000/svg" xmlns:xlink="http://www.w3.org/1999/xlink" x="0px" y="0px"
	 viewBox="0 0 1080 1080" style="enable-background:new 0 0 1080 1080;" xml:space="preserve">
<style type="text/css">
	.st0{fill:none;stroke:#22293B;stroke-width:21;}
	.st1{fill:none;stroke:#4CBFA5;stroke-width:21;}
	.st2{fill:none;stroke:#22293B;stroke-width:22;}
	.st3{fill:none;stroke:#4CBFA5;stroke-width:21;stroke-miterlimit:10;}
	.st4{fill:none;stroke:#22293B;stroke-width:21;stroke-miterlimit:10;}
	.st5{fill:none;stroke:#22293B;stroke-width:25;stroke-miterlimit:10;}
	.st6{fill:none;stroke:#4CBFA5;stroke-width:25;stroke-miterlimit:10;}
	.st7{fill:#FFFFFF;}
	.st8{fill:none;stroke:#4CBFA5;stroke-width:11;stroke-miterlimit:10;}
	.st9{fill:#4CBFA5;}
	.st10{fill:none;stroke:#4CBFA5;stroke-width:17;stroke-miterlimit:10;}
	.st11{fill:none;stroke:#22293B;stroke-width:11;stroke-miterlimit:10;}
	.st12{fill:#22293B;}
	.st13{fill:none;stroke:#22293B;stroke-width:17;stroke-miterlimit:10;}
	.st14{fill:none;stroke:#4CBFA5;stroke-width:21;stroke-linecap:round;stroke-linejoin:round;stroke-miterlimit:10;}
	.st15{fill:none;stroke:#4CBFA5;}
	.st16{fill:none;stroke:#4CBFA5;stroke-width:14;stroke-miterlimit:10;}
	.st17{fill:none;stroke:#22293B;stroke-width:20;stroke-miterlimit:10;}
	.st18{fill:none;stroke:#22293B;stroke-width:20;stroke-linecap:round;stroke-linejoin:round;stroke-miterlimit:10;}
	.st19{fill:none;stroke:#22293B;stroke-width:2;}
	.st20{fill:none;stroke:#1B1C1C;stroke-width:13;stroke-miterlimit:10;}
	.st21{fill:none;stroke:#4CBFA5;stroke-width:6;stroke-miterlimit:10;}
	.st22{fill:none;stroke:#22293B;stroke-width:19;}
	.st23{fill:none;stroke:#22293B;stroke-width:6;stroke-miterlimit:10;}
	.st24{fill:none;stroke:#22293B;stroke-width:9;}
	.st25{fill:none;stroke:#22293B;stroke-width:21;stroke-linecap:round;stroke-linejoin:round;stroke-miterlimit:13.3333;}
	.st26{fill:none;stroke:#4CBFA5;stroke-width:21;stroke-linecap:round;stroke-linejoin:round;stroke-miterlimit:13.3333;}
</style>
<g>
	<path class="st0" d="M321.4,474.36h48.51V312.5h-72.76 M701.39,593.15c4.99-5.39,8.08-12.74,8.08-20.82V451.88
		c0-7.52-2.36-14.82-6.71-20.78l-62.01-84.94c-7.65-10.48-19.49-16.62-32.04-16.62H378 M378,448.8h24.25
		c16.17,51.11,64.68,68.15,88.93,68.15l65.89,80.09c11.43,14.36,31.93,16.25,45.56,4.2l0,0c13.63-12.05,15.42-33.65,3.99-48.01
		l-58.84-70.36V448.8c0-9.41,7.24-17.04,16.17-17.04h56.59l32.34,42.6v85.19 M619.29,565.91c5.31-0.94,10.76-1.42,16.32-1.42
		c54.08,0,97.92,46.06,97.92,102.88c0,56.81-43.84,102.87-97.92,102.87c-54.08,0-97.92-46.06-97.92-102.87
		c0-22.4,6.81-43.12,18.38-60.02 M611.13,688.8c6.12,12.86,18.36,12.86,18.36,12.86h13.26c8.98,0,16.32-7.72,16.32-17.15l0,0
		c0-9.43-7.34-17.14-16.32-17.14h-14.28c-8.98,0-16.32-7.72-16.32-17.15l0,0c0-9.43,7.34-17.15,16.32-17.15h13.26
		c0,0,12.24,0,18.36,12.86 M635.61,615.93v17.15 M635.61,701.66v17.15 M513.64,803.57h243.94 M297.15,837.44l161.46-130.15h56.51
		 M757.31,707.29h40.36"/>
</g>
</svg>
