<?xml version="1.0" encoding="utf-8"?>
<!-- Generator: Adobe Illustrator 25.4.0, SVG Export Plug-In . SVG Version: 6.00 Build 0)  -->
<svg version="1.1" id="Layer_1" xmlns="http://www.w3.org/2000/svg" xmlns:xlink="http://www.w3.org/1999/xlink" x="0px" y="0px"
	 viewBox="0 0 1080 1080" style="enable-background:new 0 0 1080 1080;" xml:space="preserve">
<style type="text/css">
	.st0{fill:none;stroke:#22293B;stroke-width:21;}
	.st1{fill:none;stroke:#4CBFA5;stroke-width:21;}
	.st2{fill:none;stroke:#22293B;stroke-width:22;}
	.st3{fill:none;stroke:#4CBFA5;stroke-width:21;stroke-miterlimit:10;}
	.st4{fill:none;stroke:#22293B;stroke-width:21;stroke-miterlimit:10;}
	.st5{fill:none;stroke:#22293B;stroke-width:25;stroke-miterlimit:10;}
	.st6{fill:none;stroke:#4CBFA5;stroke-width:25;stroke-miterlimit:10;}
	.st7{fill:#FFFFFF;}
	.st8{fill:none;stroke:#4CBFA5;stroke-width:11;stroke-miterlimit:10;}
	.st9{fill:#4CBFA5;}
	.st10{fill:none;stroke:#4CBFA5;stroke-width:17;stroke-miterlimit:10;}
	.st11{fill:none;stroke:#22293B;stroke-width:11;stroke-miterlimit:10;}
	.st12{fill:#22293B;}
	.st13{fill:none;stroke:#22293B;stroke-width:17;stroke-miterlimit:10;}
	.st14{fill:none;stroke:#4CBFA5;stroke-width:21;stroke-linecap:round;stroke-linejoin:round;stroke-miterlimit:10;}
	.st15{fill:none;stroke:#4CBFA5;}
	.st16{fill:none;stroke:#4CBFA5;stroke-width:14;stroke-miterlimit:10;}
	.st17{fill:none;stroke:#22293B;stroke-width:20;stroke-miterlimit:10;}
	.st18{fill:none;stroke:#22293B;stroke-width:20;stroke-linecap:round;stroke-linejoin:round;stroke-miterlimit:10;}
	.st19{fill:none;stroke:#22293B;stroke-width:2;}
	.st20{fill:none;stroke:#1B1C1C;stroke-width:13;stroke-miterlimit:10;}
	.st21{fill:none;stroke:#4CBFA5;stroke-width:6;stroke-miterlimit:10;}
	.st22{fill:none;stroke:#22293B;stroke-width:19;}
	.st23{fill:none;stroke:#22293B;stroke-width:6;stroke-miterlimit:10;}
	.st24{fill:none;stroke:#22293B;stroke-width:9;}
	.st25{fill:none;stroke:#22293B;stroke-width:21;stroke-linecap:round;stroke-linejoin:round;stroke-miterlimit:13.3333;}
	.st26{fill:none;stroke:#4CBFA5;stroke-width:21;stroke-linecap:round;stroke-linejoin:round;stroke-miterlimit:13.3333;}
</style>
<g>
	<path class="st0" d="M472.49,447.73c-54,0-97.78-45.73-97.78-102.17c0-56.41,43.77-102.18,97.78-102.18
		c53.99,0,97.76,45.76,97.76,102.18C570.26,402,526.49,447.73,472.49,447.73L472.49,447.73z M489.76,599.29l-34.18,125.75
		l-15.44,56.8l-13.8,50.78h287.11l15.67-57.66l14.23-52.35l33.52-123.33H489.76L489.76,599.29z M469.08,673.54H394.2
		c-6.11,0-11.07-5.18-11.07-11.57v-42.42 M614.65,535.05c-18.56-18.15-43.5-29.26-70.93-29.26l0,0H401.25l0,0
		c-57.35,0-103.84,48.59-103.84,108.53v86.05c0,34.36,26.65,62.21,59.53,62.21h88.44 M426.34,832.62h-112.8"/>
</g>
</svg>
