<svg id="Layer_1" data-name="Layer 1" xmlns="http://www.w3.org/2000/svg" xmlns:xlink="http://www.w3.org/1999/xlink" viewBox="0 0 1080 1080"><defs><style>.cls-1,.cls-4,.cls-6{fill:none;}.cls-2{clip-path:url(#clip-path);}.cls-3{fill:#fff;}.cls-4,.cls-6{stroke:#21293b;stroke-miterlimit:10;}.cls-4{stroke-width:7px;}.cls-5{fill:#21293b;}.cls-6{stroke-width:3px;}</style><clipPath id="clip-path"><rect class="cls-1" x="202.82" y="185.65" width="663.9" height="598.8"/></clipPath></defs><g class="cls-2"><path class="cls-3" d="M823.35,511.76A17.2,17.2,0,1,0,806.15,529a17.22,17.22,0,0,0,17.2-17.25m14.33,0a31.53,31.53,0,1,0-57.48,18l25.95,36.66,26-36.66a31.59,31.59,0,0,0,5.58-18"/><path class="cls-4" d="M823.35,511.76A17.2,17.2,0,1,0,806.15,529,17.22,17.22,0,0,0,823.35,511.76Zm14.33,0a31.53,31.53,0,1,0-57.48,18l25.95,36.66,26-36.66A31.59,31.59,0,0,0,837.68,511.76Z"/><path class="cls-5" d="M711.94,673a3.12,3.12,0,0,1,.43,0c3.11.18,5.25,2.81,7.34,5.74,10.15,14.17,10.47,14,27.38,2.92,6.14-4,14.29-6.58,25.64-8.09,11.89-1.56,11.89-1.56,14.8-12.34,2-7.36,5.07-13.62,8.06-19.68,1-2,1.95-3.93,2.87-5.9a51.41,51.41,0,0,1,3-5.3,36.53,36.53,0,0,0,3.08-5.67c5.86-14.91,13.34-30.17,28.24-40.75,2.67-1.89,5.25-5.62,6.9-10,1.36-3.58,2.77-7.15,4.18-10.72,8.93-22.6,17.37-43.94,13.73-68.18-.61-4.14-1.12-8.51,0-12.61,3.6-13.09-2.53-23.18-10.9-35a62.83,62.83,0,0,0-4.12-5,52.74,52.74,0,0,1-5.72-7.34,109.72,109.72,0,0,1-5.13-9.91c-1.37-2.9-2.74-5.8-4.35-8.57l-.52-.88c-1.17-2-3.92-6.76-5.27-7.42-10,.54-12.41-6.58-13.89-11.74-.3-1-.59-2.06-1-3.06-1-2.57-1.77-5.28-2.58-8-1.91-6.4-3.71-12.44-7.4-16.54L794,365.86c-6.5-7.42-13.23-15.1-23.82-17.3-5.14-1.06-9.57-7.93-10.8-12.46-5.4-20-11-41.36-15.24-62.75-2.31-11.56-7.23-16.71-17-17.77-3.67-.4-6.45-1.72-8.24-3.93a10.45,10.45,0,0,1-2-8.1c1.38-11.71-3.21-21.73-8.06-32.33a132.74,132.74,0,0,1-6.52-16,3.87,3.87,0,0,0-.77-1.28,3,3,0,0,0-.65.66l-2.38,5.85c-6.75,16.46-13.13,32-12.13,49.59.86,15.15-2.91,30.83-11.53,47.95-4,7.87-8.63,12.38-14.29,13.78-6,1.46-12.57-.5-20.79-6.23-7.56-5.26-15.63-10.15-23.44-14.88-5.81-3.51-11.61-7-17.28-10.72-8-5.23-15.81-11-23.34-16.61l-3.51-2.6c-1.6-1.19-4.23-4.76-4.33-6.76a3.4,3.4,0,0,1,1.06-2.61c4.59-4.2,6.13-9.88,7.77-15.9a63.55,63.55,0,0,1,3.42-10.25c.89-1.92,2.89-2.36,4.08-2.63a52.64,52.64,0,0,0,7.12-8.88c-.29-.31-.62-.64-.93-.92-9,3.94-17.79,1.51-25.53-.63-1.85-.53-3.68-1-5.5-1.45-9.48-2.17-18.76-5.42-27.74-8.57l-6.86-2.39a7.11,7.11,0,0,1,1,3.62c0,3.4-2.5,6.6-6.83,8.78-5.87,2.95-13,4.23-18.57,3.35-6.59-1-9.12.43-10.9,2.92-6.08,8.55-12.36,18.18-19.77,30.32.1.2.7,1.93,1,2.85l.34,1c1.63,4.91,2.27,8.76.1,11.53s-6,3.11-11,2.88a23.61,23.61,0,0,1-3.84-.63,9.85,9.85,0,0,0-3-.44c-9.38,4.83-13.47-1.13-16.48-5.46l-1-1.44c-8.14-11.34-15.8-12.52-28.33-4.33-8.32,5.46-14.24,12.72-20.51,20.4l-.59.73c-.8,1-1.67,1.87-2.51,2.73-2.82,2.85-3.65,3.9-2.48,7a5.13,5.13,0,0,1-.61,4.32c-1.09,2-3.94,5.35-7,6-3.63.81-4.16,1.36-4.24,1.51s-.32.76.87,3.54c1.3,3-.6,6.09-2.43,9.1a28.71,28.71,0,0,0-1.6,2.82,3.31,3.31,0,0,1-4.78,1.38c-.75-.47-1.52-.91-2.3-1.36a28.45,28.45,0,0,1-5.74-3.91c-1.84-1.76-3.57-2.68-4.63-2.44s-1.88,1.42-2.64,3.36a18.8,18.8,0,0,0-1,6.2c0,.05,0,.22,0,.4,1.09,19.8-18.55,43.52-35.61,50-18.72,7.12-37.44,14.26-56.05,21.63a27.44,27.44,0,0,0-7.3,5c-1.9,1.64-3.69,3.47-5.47,5.29-3.71,3.8-7.54,7.71-12.4,10.15-1.4.71-2.54,2.66-3.74,4.73-2.16,3.71-5.62,9.59-13.35,7.77a6.42,6.42,0,0,0-.42,2.19,47.09,47.09,0,0,0,1,6.31c.87,4.24,1.78,8.62.65,12.86-2.78,10.36-.23,19.25,8.51,29.75a58.84,58.84,0,0,1,5.11,7.46c1.36,2.25,3.06,5.05,1.89,8-1.11,2.83-4.22,4.08-6.48,4.78a3.19,3.19,0,0,0-2.24,1.81c-.31,1.06.28,2.53,1.6,4l.6.67a53.78,53.78,0,0,1,7.67,10L236,521.37c9.53,17.52,19.39,35.64,28.23,53.89,6.25,12.89,11,28.08-.77,43-.31.85.26,4.27,1,5.12,17.36,13.07,32.77,14,47,2.76,12.63-10,26.93-21.31,46.61-21.65h0c8.38-.15,16.89-1.92,24.85-3.82,3.2-.75,6.6-2.89,7.57-4.77,9.59-18.44,28.78-23.95,36.59-25.46,8.79-1.71,17.19-4.74,25.31-7.67a205,205,0,0,1,21-6.73c10.74-2.62,22.86-3.31,39.33-2.25,6.91.43,13.52,3.14,19.9,5.75,1.75.71,3.48,1.43,5.21,2.08,1,.39,2.16.77,3.32,1.17,5.21,1.76,11.12,3.76,13,8.13,2.17,5.14,6,9.44,10,14,5.72,6.49,11.6,13.18,13,22.7,3.12-4.74,7.48-8.16,11.72-11.48,5.52-4.32,10.72-8.4,12.66-14.95.64-2.23,2.71-3.28,4.36-4.13a12.68,12.68,0,0,0,1.28-.71,3.37,3.37,0,0,1,2.61-.49,3.26,3.26,0,0,1,2.11,1.56c.24.41.53.81.82,1.22a10.16,10.16,0,0,1,2.19,4.8A25.24,25.24,0,0,1,614,593c-1.18,4-2.46,7.94-3.77,11.89l1-1.5a3.39,3.39,0,0,1,2.44-1.42,3.19,3.19,0,0,1,2.65,1,18.48,18.48,0,0,0,1.46,1.3,12.89,12.89,0,0,1,4,4.78c1.77,4.35,2.39,8,1.9,11.13a18.85,18.85,0,0,0-.36,4.39,15.27,15.27,0,0,0,3.37-1.37c2-1,4.66-.2,5.69.19a5.39,5.39,0,0,1,3.44,3.09c.75,2.17,1.57,4.35,2.39,6.53,2.55,6.77,5.19,13.77,5.66,21,.54,8.13,3.29,12.75,9.19,15.42a120.64,120.64,0,0,0,12,4.45,100.18,100.18,0,0,1,16.07,6.4c10.13,5.45,17.17,4.51,24.27-3.28,1.83-2,3.83-3.93,6.49-4m19.37,23.16c-5.64.1-10.1-4.11-17-13.72a16.56,16.56,0,0,0-2.44-2.93c0,.22-.57.69-1.54,1.75-9.21,10.09-19.5,11.56-32.35,4.62A92.37,92.37,0,0,0,663,680a127.72,127.72,0,0,1-12.63-4.7c-8.15-3.7-12.27-10.33-13-20.85-.42-6.33-2.78-12.6-5.28-19.22-.74-2-1.48-3.93-2.16-5.89a3.44,3.44,0,0,0-.91-.23c-2.48,1.44-6.62,3.1-9.68.94s-2.75-6.77-2.11-10.85c.21-1.33.12-3.77-1.51-7.79a4.79,4.79,0,0,0-1.15-1.37,29.07,29.07,0,0,0-1.84,2.87,17.12,17.12,0,0,0-1,2.45,19.93,19.93,0,0,1-2,4.16c-1.11,1.66-3,2.14-4.32,2.49-.34.09-.67.16-1,.27a3.29,3.29,0,0,1-3-.29,3.18,3.18,0,0,1-1.5-2.53l-.09-.8A7.8,7.8,0,0,1,600,615c1-3.18,2.06-6.36,3.1-9.53,1.58-4.74,3.15-9.48,4.57-14.26a19.4,19.4,0,0,0,.56-7.13,2.52,2.52,0,0,0-.39-.79,2.58,2.58,0,0,0-.47.3c-2.17,7.91-8.45,12.83-14.52,17.59-4.59,3.59-8.93,7-11.37,11.75-1.25,2.53-4.34,1.92-6.16,1.56-1.55-.31-4.44-.88-4.59-3.62-.38-8.91-5.86-15.14-11.66-21.74-4.17-4.73-8.47-9.63-11.05-15.71-.72-1.71-5.73-3.41-9-4.52-1.25-.42-2.46-.83-3.57-1.25-1.78-.68-3.56-1.42-5.36-2.15-5.88-2.41-12-4.91-17.79-5.28-15.77-1-27.27-.35-37.31,2.09a196.86,196.86,0,0,0-20.32,6.52c-8.36,3-17,6.14-26.31,7.94-6.86,1.34-23.72,6.15-32,22.07-2.16,4.15-7.67,7.12-11.87,8.12-8.33,2-17.27,3.83-26.29,4h0c-17.43.3-30.22,10.43-42.6,20.22-16.67,13.18-35.24,12.28-55.2-2.75-2.42-1.82-3.16-5.6-3.36-7.15-.28-2.09-.28-5,1.25-6.92,9.61-12.16,5.7-24.65,0-36.33-8.78-18.12-18.6-36.17-28.1-53.62l-6.77-12.48a49.06,49.06,0,0,0-6.8-8.81l-.6-.68c-2.85-3.19-3.92-6.74-3-10a9.4,9.4,0,0,1,6.6-6.22,5.78,5.78,0,0,0,2.39-1.09,23.13,23.13,0,0,1-1.5-2.31,54.67,54.67,0,0,0-4.53-6.67c-6.8-8.15-14.05-19.54-9.78-35.45.74-2.79,0-6.27-.74-10a54.32,54.32,0,0,1-1.14-7.14,14.35,14.35,0,0,1,1.12-5.77c.21-.61.43-1.22.58-1.83a3.26,3.26,0,0,1,1.8-2.11,3.38,3.38,0,0,1,2.8,0c4.55,2.13,5.55.87,8.31-3.88,1.55-2.66,3.31-5.69,6.45-7.27,3.88-1.94,7.17-5.31,10.66-8.87,1.9-2,3.83-3.91,5.86-5.68a33.64,33.64,0,0,1,9.18-6.1c18.65-7.39,37.4-14.53,56.14-21.66,15-5.71,32.44-27,31.42-43.8a2.8,2.8,0,0,1,0-.5,25.88,25.88,0,0,1,1.47-8.65c2.05-5.18,5.14-6.84,7.36-7.32s6.09-.2,10.62,4.1a21.17,21.17,0,0,0,4,2.72l.2-.33a15.82,15.82,0,0,0,1.92-3.74c-1-2.17-2.13-5.56-.57-8.53s5.14-4.06,8.63-4.85a8.58,8.58,0,0,0,2.61-2.68c-2.06-6.48,1.55-10.13,4.22-12.83.69-.71,1.43-1.44,2.09-2.26l.6-.73c6.6-8.09,12.83-15.73,22-21.73,15.58-10.21,27.1-8.35,37.35,6l1.07,1.52c3.08,4.46,3.82,5.52,8.07,3.35,2.41-1.22,5.09-.63,7.44-.11a16,16,0,0,0,2.7.48c4.48.25,5.39-.3,5.53-.42s.31-1.13-1.17-5.6l-.31-.9c-.87-2.54-2-5.7-.43-8.22,7.48-12.26,13.84-22,20-30.69,4.75-6.69,12.16-6.38,17.33-5.59,4.21.65,9.92-.42,14.53-2.74,2.38-1.19,3.27-2.5,3.26-3.06s-.64-1.45-3.07-2.69a14.86,14.86,0,0,1-3.47-2.64c-.35-.33-.7-.66-1.06-1a3.18,3.18,0,0,1-1-3.49,3.28,3.28,0,0,1,3-2.17c.48,0,1-.09,1.46-.15a11.46,11.46,0,0,1,5.08.16c4.6,1.47,9.15,3.07,13.71,4.67,8.8,3.08,17.91,6.28,27,8.36,1.92.44,3.85,1,5.8,1.52,7.76,2.16,15.07,4.19,22.41.29,2.59-1.39,4.95.95,6.51,2.5s3.92,3.9,2.47,6.43a79.7,79.7,0,0,1-8.58,11.76,6.39,6.39,0,0,1-3.8,1.91,66.58,66.58,0,0,0-2.63,8.26c-1.61,5.95-3.28,12.08-7.93,17.24a6.91,6.91,0,0,0,1,1.25l3.53,2.62c7.44,5.52,15.14,11.24,23,16.37,5.61,3.66,11.35,7.13,17.1,10.6,7.9,4.79,16.07,9.73,23.79,15.11,6.43,4.49,11.47,6.22,15.38,5.22,3.67-.9,6.94-4.29,10-10.37,8.1-16.1,11.65-30.73,10.86-44.75-1.08-19,5.87-36,12.59-52.34l2.39-5.87c1-2.37,4.6-5.58,7.77-4.92s5.36,3.89,6,6.09a125.39,125.39,0,0,0,6.21,15.26c5,10.93,10.18,22.23,8.6,35.69a4.43,4.43,0,0,0,.63,3.36c.84,1,2.54,1.41,3.83,1.55,16.59,1.81,20.89,13.95,22.68,22.92,4.23,21.21,9.78,42.49,15.15,62.33.94,3.48,4.18,7.49,5.82,7.83,12.76,2.66,20.56,11.56,27.44,19.41l2.71,3.07c4.66,5.18,6.76,12.2,8.79,19,.77,2.57,1.53,5.14,2.44,7.58.43,1.15.77,2.34,1.11,3.52,1.51,5.23,2.69,7.33,7.87,7.15H822c4.07-.07,7,4.35,10.57,10.58l.51.87c1.71,2.92,3.16,6,4.61,9.05a100.76,100.76,0,0,0,4.82,9.33,47,47,0,0,0,5,6.44,70.18,70.18,0,0,1,4.54,5.56c7.37,10.39,16.52,23.32,11.84,40.34-.8,2.9-.36,6.53.16,10,3.88,25.91-5.27,49.06-14.11,71.43-1.4,3.54-2.8,7.09-4.15,10.65-1,2.63-3.91,9.16-9.21,12.93-12.76,9.06-19.6,21.69-26,37.85a42.18,42.18,0,0,1-3.6,6.68,47.84,47.84,0,0,0-2.65,4.65c-.94,2-1.93,4-2.92,6-2.86,5.78-5.81,11.76-7.43,17.8-4,14.82-5.09,15.77-19.69,17.69-11,1.46-18.45,3.77-23.66,7.17-8.86,5.78-14.58,9.05-19.42,9.14"/><path class="cls-6" d="M711.94,673a3.12,3.12,0,0,1,.43,0c3.11.18,5.25,2.81,7.34,5.74,10.15,14.17,10.47,14,27.38,2.92,6.14-4,14.29-6.58,25.64-8.09,11.89-1.56,11.89-1.56,14.8-12.34,2-7.36,5.07-13.62,8.06-19.68,1-2,1.95-3.93,2.87-5.9a51.41,51.41,0,0,1,3-5.3,36.53,36.53,0,0,0,3.08-5.67c5.86-14.91,13.34-30.17,28.24-40.75,2.67-1.89,5.25-5.62,6.9-10,1.36-3.58,2.77-7.15,4.18-10.72,8.93-22.6,17.37-43.94,13.73-68.18-.61-4.14-1.12-8.51,0-12.61,3.6-13.09-2.53-23.18-10.9-35a62.83,62.83,0,0,0-4.12-5,52.74,52.74,0,0,1-5.72-7.34,109.72,109.72,0,0,1-5.13-9.91c-1.37-2.9-2.74-5.8-4.35-8.57l-.52-.88c-1.17-2-3.92-6.76-5.27-7.42-10,.54-12.41-6.58-13.89-11.74-.3-1-.59-2.06-1-3.06-1-2.57-1.77-5.28-2.58-8-1.91-6.4-3.71-12.44-7.4-16.54L794,365.86c-6.5-7.42-13.23-15.1-23.82-17.3-5.14-1.06-9.57-7.93-10.8-12.46-5.4-20-11-41.36-15.24-62.75-2.31-11.56-7.23-16.71-17-17.77-3.67-.4-6.45-1.72-8.24-3.93a10.45,10.45,0,0,1-2-8.1c1.38-11.71-3.21-21.73-8.06-32.33a132.74,132.74,0,0,1-6.52-16,3.87,3.87,0,0,0-.77-1.28,3,3,0,0,0-.65.66l-2.38,5.85c-6.75,16.46-13.13,32-12.13,49.59.86,15.15-2.91,30.83-11.53,47.95-4,7.87-8.63,12.38-14.29,13.78-6,1.46-12.57-.5-20.79-6.23-7.56-5.26-15.63-10.15-23.44-14.88-5.81-3.51-11.61-7-17.28-10.72-8-5.23-15.81-11-23.34-16.61l-3.51-2.6c-1.6-1.19-4.23-4.76-4.33-6.76a3.4,3.4,0,0,1,1.06-2.61c4.59-4.2,6.13-9.88,7.77-15.9a63.55,63.55,0,0,1,3.42-10.25c.89-1.92,2.89-2.36,4.08-2.63a52.64,52.64,0,0,0,7.12-8.88c-.29-.31-.62-.64-.93-.92-9,3.94-17.79,1.51-25.53-.63-1.85-.53-3.68-1-5.5-1.45-9.48-2.17-18.76-5.42-27.74-8.57l-6.86-2.39a7.11,7.11,0,0,1,1,3.62c0,3.4-2.5,6.6-6.83,8.78-5.87,2.95-13,4.23-18.57,3.35-6.59-1-9.12.43-10.9,2.92-6.08,8.55-12.36,18.18-19.77,30.32.1.2.7,1.93,1,2.85l.34,1c1.63,4.91,2.27,8.76.1,11.53s-6,3.11-11,2.88a23.61,23.61,0,0,1-3.84-.63,9.85,9.85,0,0,0-3-.44c-9.38,4.83-13.47-1.13-16.48-5.46l-1-1.44c-8.14-11.34-15.8-12.52-28.33-4.33-8.32,5.46-14.24,12.72-20.51,20.4l-.59.73c-.8,1-1.67,1.87-2.51,2.73-2.82,2.85-3.65,3.9-2.48,7a5.13,5.13,0,0,1-.61,4.32c-1.09,2-3.94,5.35-7,6-3.63.81-4.16,1.36-4.24,1.51s-.32.76.87,3.54c1.3,3-.6,6.09-2.43,9.1a28.71,28.71,0,0,0-1.6,2.82,3.31,3.31,0,0,1-4.78,1.38c-.75-.47-1.52-.91-2.3-1.36a28.45,28.45,0,0,1-5.74-3.91c-1.84-1.76-3.57-2.68-4.63-2.44s-1.88,1.42-2.64,3.36a18.8,18.8,0,0,0-1,6.2c0,.05,0,.22,0,.4,1.09,19.8-18.55,43.52-35.61,50-18.72,7.12-37.44,14.26-56.05,21.63a27.44,27.44,0,0,0-7.3,5c-1.9,1.64-3.69,3.47-5.47,5.29-3.71,3.8-7.54,7.71-12.4,10.15-1.4.71-2.54,2.66-3.74,4.73-2.16,3.71-5.62,9.59-13.35,7.77a6.42,6.42,0,0,0-.42,2.19,47.09,47.09,0,0,0,1,6.31c.87,4.24,1.78,8.62.65,12.86-2.78,10.36-.23,19.25,8.51,29.75a58.84,58.84,0,0,1,5.11,7.46c1.36,2.25,3.06,5.05,1.89,8-1.11,2.83-4.22,4.08-6.48,4.78a3.19,3.19,0,0,0-2.24,1.81c-.31,1.06.28,2.53,1.6,4l.6.67a53.78,53.78,0,0,1,7.67,10L236,521.37c9.53,17.52,19.39,35.64,28.23,53.89,6.25,12.89,11,28.08-.77,43-.31.85.26,4.27,1,5.12,17.36,13.07,32.77,14,47,2.76,12.63-10,26.93-21.31,46.61-21.65h0c8.38-.15,16.89-1.92,24.85-3.82,3.2-.75,6.6-2.89,7.57-4.77,9.59-18.44,28.78-23.95,36.59-25.46,8.79-1.71,17.19-4.74,25.31-7.67a205,205,0,0,1,21-6.73c10.74-2.62,22.86-3.31,39.33-2.25,6.91.43,13.52,3.14,19.9,5.75,1.75.71,3.48,1.43,5.21,2.08,1,.39,2.16.77,3.32,1.17,5.21,1.76,11.12,3.76,13,8.13,2.17,5.14,6,9.44,10,14,5.72,6.49,11.6,13.18,13,22.7,3.12-4.74,7.48-8.16,11.72-11.48,5.52-4.32,10.72-8.4,12.66-14.95.64-2.23,2.71-3.28,4.36-4.13a12.68,12.68,0,0,0,1.28-.71,3.37,3.37,0,0,1,2.61-.49,3.26,3.26,0,0,1,2.11,1.56c.24.41.53.81.82,1.22a10.16,10.16,0,0,1,2.19,4.8A25.24,25.24,0,0,1,614,593c-1.18,4-2.46,7.94-3.77,11.89l1-1.5a3.39,3.39,0,0,1,2.44-1.42,3.19,3.19,0,0,1,2.65,1,18.48,18.48,0,0,0,1.46,1.3,12.89,12.89,0,0,1,4,4.78c1.77,4.35,2.39,8,1.9,11.13a18.85,18.85,0,0,0-.36,4.39,15.27,15.27,0,0,0,3.37-1.37c2-1,4.66-.2,5.69.19a5.39,5.39,0,0,1,3.44,3.09c.75,2.17,1.57,4.35,2.39,6.53,2.55,6.77,5.19,13.77,5.66,21,.54,8.13,3.29,12.75,9.19,15.42a120.64,120.64,0,0,0,12,4.45,100.18,100.18,0,0,1,16.07,6.4c10.13,5.45,17.17,4.51,24.27-3.28C707.28,675,709.28,673.07,711.94,673Zm19.37,23.16c-5.64.1-10.1-4.11-17-13.72a16.56,16.56,0,0,0-2.44-2.93c0,.22-.57.69-1.54,1.75-9.21,10.09-19.5,11.56-32.35,4.62A92.37,92.37,0,0,0,663,680a127.72,127.72,0,0,1-12.63-4.7c-8.15-3.7-12.27-10.33-13-20.85-.42-6.33-2.78-12.6-5.28-19.22-.74-2-1.48-3.93-2.16-5.89a3.44,3.44,0,0,0-.91-.23c-2.48,1.44-6.62,3.1-9.68.94s-2.75-6.77-2.11-10.85c.21-1.33.12-3.77-1.51-7.79a4.79,4.79,0,0,0-1.15-1.37,29.07,29.07,0,0,0-1.84,2.87,17.12,17.12,0,0,0-1,2.45,19.93,19.93,0,0,1-2,4.16c-1.11,1.66-3,2.14-4.32,2.49-.34.09-.67.16-1,.27a3.29,3.29,0,0,1-3-.29,3.18,3.18,0,0,1-1.5-2.53l-.09-.8A7.8,7.8,0,0,1,600,615c1-3.18,2.06-6.36,3.1-9.53,1.58-4.74,3.15-9.48,4.57-14.26a19.4,19.4,0,0,0,.56-7.13,2.52,2.52,0,0,0-.39-.79,2.58,2.58,0,0,0-.47.3c-2.17,7.91-8.45,12.83-14.52,17.59-4.59,3.59-8.93,7-11.37,11.75-1.25,2.53-4.34,1.92-6.16,1.56-1.55-.31-4.44-.88-4.59-3.62-.38-8.91-5.86-15.14-11.66-21.74-4.17-4.73-8.47-9.63-11.05-15.71-.72-1.71-5.73-3.41-9-4.52-1.25-.42-2.46-.83-3.57-1.25-1.78-.68-3.56-1.42-5.36-2.15-5.88-2.41-12-4.91-17.79-5.28-15.77-1-27.27-.35-37.31,2.09a196.86,196.86,0,0,0-20.32,6.52c-8.36,3-17,6.14-26.31,7.94-6.86,1.34-23.72,6.15-32,22.07-2.16,4.15-7.67,7.12-11.87,8.12-8.33,2-17.27,3.83-26.29,4h0c-17.43.3-30.22,10.43-42.6,20.22-16.67,13.18-35.24,12.28-55.2-2.75-2.42-1.82-3.16-5.6-3.36-7.15-.28-2.09-.28-5,1.25-6.92,9.61-12.16,5.7-24.65,0-36.33-8.78-18.12-18.6-36.17-28.1-53.62l-6.77-12.48a49.06,49.06,0,0,0-6.8-8.81l-.6-.68c-2.85-3.19-3.92-6.74-3-10a9.4,9.4,0,0,1,6.6-6.22,5.78,5.78,0,0,0,2.39-1.09,23.13,23.13,0,0,1-1.5-2.31,54.67,54.67,0,0,0-4.53-6.67c-6.8-8.15-14.05-19.54-9.78-35.45.74-2.79,0-6.27-.74-10a54.32,54.32,0,0,1-1.14-7.14,14.35,14.35,0,0,1,1.12-5.77c.21-.61.43-1.22.58-1.83a3.26,3.26,0,0,1,1.8-2.11,3.38,3.38,0,0,1,2.8,0c4.55,2.13,5.55.87,8.31-3.88,1.55-2.66,3.31-5.69,6.45-7.27,3.88-1.94,7.17-5.31,10.66-8.87,1.9-2,3.83-3.91,5.86-5.68a33.64,33.64,0,0,1,9.18-6.1c18.65-7.39,37.4-14.53,56.14-21.66,15-5.71,32.44-27,31.42-43.8a2.8,2.8,0,0,1,0-.5,25.88,25.88,0,0,1,1.47-8.65c2.05-5.18,5.14-6.84,7.36-7.32s6.09-.2,10.62,4.1a21.17,21.17,0,0,0,4,2.72l.2-.33a15.82,15.82,0,0,0,1.92-3.74c-1-2.17-2.13-5.56-.57-8.53s5.14-4.06,8.63-4.85a8.58,8.58,0,0,0,2.61-2.68c-2.06-6.48,1.55-10.13,4.22-12.83.69-.71,1.43-1.44,2.09-2.26l.6-.73c6.6-8.09,12.83-15.73,22-21.73,15.58-10.21,27.1-8.35,37.35,6l1.07,1.52c3.08,4.46,3.82,5.52,8.07,3.35,2.41-1.22,5.09-.63,7.44-.11a16,16,0,0,0,2.7.48c4.48.25,5.39-.3,5.53-.42s.31-1.13-1.17-5.6l-.31-.9c-.87-2.54-2-5.7-.43-8.22,7.48-12.26,13.84-22,20-30.69,4.75-6.69,12.16-6.38,17.33-5.59,4.21.65,9.92-.42,14.53-2.74,2.38-1.19,3.27-2.5,3.26-3.06s-.64-1.45-3.07-2.69a14.86,14.86,0,0,1-3.47-2.64c-.35-.33-.7-.66-1.06-1a3.18,3.18,0,0,1-1-3.49,3.28,3.28,0,0,1,3-2.17c.48,0,1-.09,1.46-.15a11.46,11.46,0,0,1,5.08.16c4.6,1.47,9.15,3.07,13.71,4.67,8.8,3.08,17.91,6.28,27,8.36,1.92.44,3.85,1,5.8,1.52,7.76,2.16,15.07,4.19,22.41.29,2.59-1.39,4.95.95,6.51,2.5s3.92,3.9,2.47,6.43a79.7,79.7,0,0,1-8.58,11.76,6.39,6.39,0,0,1-3.8,1.91,66.58,66.58,0,0,0-2.63,8.26c-1.61,5.95-3.28,12.08-7.93,17.24a6.91,6.91,0,0,0,1,1.25l3.53,2.62c7.44,5.52,15.14,11.24,23,16.37,5.61,3.66,11.35,7.13,17.1,10.6,7.9,4.79,16.07,9.73,23.79,15.11,6.43,4.49,11.47,6.22,15.38,5.22,3.67-.9,6.94-4.29,10-10.37,8.1-16.1,11.65-30.73,10.86-44.75-1.08-19,5.87-36,12.59-52.34l2.39-5.87c1-2.37,4.6-5.58,7.77-4.92s5.36,3.89,6,6.09a125.39,125.39,0,0,0,6.21,15.26c5,10.93,10.18,22.23,8.6,35.69a4.43,4.43,0,0,0,.63,3.36c.84,1,2.54,1.41,3.83,1.55,16.59,1.81,20.89,13.95,22.68,22.92,4.23,21.21,9.78,42.49,15.15,62.33.94,3.48,4.18,7.49,5.82,7.83,12.76,2.66,20.56,11.56,27.44,19.41l2.71,3.07c4.66,5.18,6.76,12.2,8.79,19,.77,2.57,1.53,5.14,2.44,7.58.43,1.15.77,2.34,1.11,3.52,1.51,5.23,2.69,7.33,7.87,7.15H822c4.07-.07,7,4.35,10.57,10.58l.51.87c1.71,2.92,3.16,6,4.61,9.05a100.76,100.76,0,0,0,4.82,9.33,47,47,0,0,0,5,6.44,70.18,70.18,0,0,1,4.54,5.56c7.37,10.39,16.52,23.32,11.84,40.34-.8,2.9-.36,6.53.16,10,3.88,25.91-5.27,49.06-14.11,71.43-1.4,3.54-2.8,7.09-4.15,10.65-1,2.63-3.91,9.16-9.21,12.93-12.76,9.06-19.6,21.69-26,37.85a42.18,42.18,0,0,1-3.6,6.68,47.84,47.84,0,0,0-2.65,4.65c-.94,2-1.93,4-2.92,6-2.86,5.78-5.81,11.76-7.43,17.8-4,14.82-5.09,15.77-19.69,17.69-11,1.46-18.45,3.77-23.66,7.17C741.87,692.83,736.15,696.1,731.31,696.19Z"/><path class="cls-5" d="M713.53,731.92a2.1,2.1,0,0,0-1,.19,3.9,3.9,0,0,0,.23,1.74c3.94,12.87,7.92,24.46,12.2,35.41.82,2.1,3.16,4.54,6.41,6.67a6.27,6.27,0,0,0,3.82.47C745.37,767,754.83,757,755,740.63c0-.1,0-.2,0-.3.15-1.47-.05-2.61-.53-3s-2.1-.53-4.76.42c-11.47,4.12-21.34,2.62-30.19-4.61a8.48,8.48,0,0,0-2.6-.72l-1.48-.3a8.11,8.11,0,0,0-1.89-.23m20.79,51a12.59,12.59,0,0,1-6.66-1.68c-3.11-2-7.17-5.39-8.87-9.72-4.33-11.1-8.37-22.83-12.35-35.87-1.27-4.16,0-6.64,1.28-8,2-2.07,5.22-2.72,9.19-1.82l1.23.25a12.05,12.05,0,0,1,5.58,2.1c7,5.73,14.54,6.83,23.69,3.52,5.8-2.1,9.21-.87,11.06.53,1.65,1.25,3.52,3.75,3.06,8.54-.21,18.77-11.09,30.3-22.21,40.5a7.58,7.58,0,0,1-5,1.63"/><path class="cls-6" d="M713.53,731.92a2.1,2.1,0,0,0-1,.19,3.9,3.9,0,0,0,.23,1.74c3.94,12.87,7.92,24.46,12.2,35.41.82,2.1,3.16,4.54,6.41,6.67a6.27,6.27,0,0,0,3.82.47C745.37,767,754.83,757,755,740.63c0-.1,0-.2,0-.3.15-1.47-.05-2.61-.53-3s-2.1-.53-4.76.42c-11.47,4.12-21.34,2.62-30.19-4.61a8.48,8.48,0,0,0-2.6-.72l-1.48-.3A8.11,8.11,0,0,0,713.53,731.92Zm20.79,51a12.59,12.59,0,0,1-6.66-1.68c-3.11-2-7.17-5.39-8.87-9.72-4.33-11.1-8.37-22.83-12.35-35.87-1.27-4.16,0-6.64,1.28-8,2-2.07,5.22-2.72,9.19-1.82l1.23.25a12.05,12.05,0,0,1,5.58,2.1c7,5.73,14.54,6.83,23.69,3.52,5.8-2.1,9.21-.87,11.06.53,1.65,1.25,3.52,3.75,3.06,8.54-.21,18.77-11.09,30.3-22.21,40.5A7.58,7.58,0,0,1,734.32,783Z"/></g></svg>