<?xml version="1.0" encoding="utf-8"?>
<!-- Generator: Adobe Illustrator 25.4.0, SVG Export Plug-In . SVG Version: 6.00 Build 0)  -->
<svg version="1.1" id="Layer_1" xmlns="http://www.w3.org/2000/svg" xmlns:xlink="http://www.w3.org/1999/xlink" x="0px" y="0px"
	 viewBox="0 0 1080 1080" style="enable-background:new 0 0 1080 1080;" xml:space="preserve">
<style type="text/css">
	.st0{fill:none;stroke:#22293B;stroke-width:8;stroke-miterlimit:10;}
	.st1{fill:#22293B;}
	.st2{fill:none;stroke:#22293B;stroke-width:11;stroke-miterlimit:10;}
	.st3{fill:none;stroke:#22293B;stroke-width:13;stroke-miterlimit:10;}
</style>
<g>
	<path class="st0" d="M812.95,553.61c0-9.85-7.96-17.82-17.77-17.82c-9.82,0-17.77,7.98-17.77,17.82c0,9.85,7.96,17.82,17.77,17.82
		C804.99,571.43,812.95,563.46,812.95,553.61L812.95,553.61z"/>
	<path class="st1" d="M737.74,736.99c-5.63,0.1-10.09-4.12-16.97-13.72c-1.37-1.91-2.1-2.64-2.44-2.93
		c-0.03,0.22-0.57,0.69-1.54,1.75c-9.22,10.09-19.5,11.56-32.35,4.62c-4.61-2.49-9.67-4.17-15.01-5.94
		c-4.19-1.39-8.51-2.83-12.63-4.7c-8.16-3.7-12.28-10.33-12.97-20.85c-0.42-6.33-2.78-12.6-5.28-19.22
		c-0.74-1.96-1.48-3.93-2.16-5.89c-0.32-0.12-0.72-0.23-0.92-0.23c-2.48,1.44-6.62,3.1-9.67,0.94c-3.18-2.23-2.76-6.76-2.12-10.85
		c0.22-1.33,0.12-3.77-1.51-7.78c-0.16-0.4-0.61-0.87-1.15-1.37c-0.66,0.93-1.3,1.88-1.84,2.87c-0.42,0.77-0.73,1.61-1.03,2.44
		c-0.49,1.31-4.31,11.49-5.22,12.86c-1.11,1.66-2.96,2.15-4.32,2.49c-0.33,0.09-0.66,0.16-0.95,0.28c-0.98,0.38-2.09,0.27-2.98-0.29
		s-1.45-1.5-1.5-2.53l-0.09-0.8c-0.14-0.96-0.33-2.27,0.11-3.63c1-3.18,5.32-15.05,6.37-18.23c1.57-4.73,3.14-9.47,4.56-14.26
		c0.6-2.06,0.81-4.59,0.57-7.13c-0.02-0.16-0.19-0.46-0.4-0.79c-0.21,0.12-0.38,0.22-0.46,0.3c-2.18,7.91-8.46,12.82-14.53,17.59
		c-4.59,3.6-11.61,13.63-14.05,18.39c-1.26,2.53-4.34,1.92-6.16,1.56c-1.55-0.31-1.75-7.52-1.9-10.26
		c-0.38-8.9-5.87-15.14-11.67-21.74c-4.16-4.73-8.47-9.63-11.05-15.71c-0.72-1.71-5.73-3.41-9.04-4.52
		c-1.24-0.42-2.46-0.83-3.56-1.25c-1.78-0.68-3.57-1.41-5.36-2.15c-5.89-2.41-11.97-4.9-17.79-5.27
		c-15.77-0.98-27.27-0.35-37.31,2.08c-6.88,1.67-13.4,4.03-20.31,6.52c-8.37,3.02-17.01,6.14-26.31,7.95
		c-6.87,1.33-23.72,6.14-32.01,22.07c-2.16,4.15-7.67,7.12-11.88,8.11c-8.32,1.98-17.27,3.84-26.29,4c-0.01,0-0.01,0-0.01,0
		c-17.43,0.3-30.22,10.43-42.6,20.22c-16.67,13.18-35.25,12.28-55.21-2.75c-2.42-1.82-3.15-5.6-3.35-7.15
		c-0.28-2.09-0.29-4.99,1.25-6.92c9.61-12.16,5.7-24.65,0.03-36.34c-8.78-18.11-18.6-36.16-28.1-53.62l-6.78-12.47
		c-1.67-3.1-4.27-6-6.79-8.81l-0.6-0.68c-2.85-3.2-3.92-6.74-2.98-9.98c0.83-2.91,3.24-5.18,6.6-6.22c1.95-0.6,2.37-1.07,2.39-1.09
		c-0.17-0.12-1.1-1.66-1.5-2.32c-1.37-2.27-2.85-4.65-4.54-6.67c-6.8-8.15-14.04-19.54-9.78-35.44c0.75-2.79,0.03-6.27-0.74-9.96
		c-0.49-2.39-0.98-4.79-1.14-7.14c-0.15-2.12,0.52-4.06,1.12-5.77c0.21-0.61,0.43-1.22,0.58-1.83c0.25-0.93,0.91-1.71,1.8-2.12
		c0.89-0.39,1.92-0.39,2.8,0.01c4.55,2.13,5.55,0.86,8.3-3.88c1.55-2.67,3.31-5.69,6.46-7.28c3.87-1.94,7.16-5.31,10.65-8.87
		c1.91-1.95,3.83-3.91,5.87-5.67c2.74-2.37,5.76-4.75,9.18-6.11c18.65-7.38,37.4-14.53,56.14-21.66
		c14.99-5.71,32.44-27.04,31.42-43.8c-0.01-0.16-0.01-0.33,0.01-0.5c0.05-1.72,0.16-5.35,1.47-8.65c2.05-5.19,5.14-6.85,7.36-7.33
		c2.35-0.48,6.09-0.2,10.62,4.1c1.06,1.01,2.48,1.85,4,2.72c0.07-0.11,0.13-0.22,0.2-0.33c0.7-1.15,1.87-3.07,1.92-3.74
		c-1.03-2.18-2.13-5.56-0.57-8.53c1.6-3.05,5.14-4.06,8.63-4.85c0.61-0.24,2.06-1.73,2.61-2.68c-2.06-6.48,1.55-10.13,4.22-12.84
		c0.7-0.71,1.43-1.44,2.1-2.26l0.6-0.72c6.6-8.09,12.83-15.73,21.99-21.74c15.58-10.21,27.1-8.34,37.35,5.98l1.07,1.52
		c3.08,4.46,3.82,5.51,8.07,3.34c2.41-1.21,5.09-0.63,7.44-0.1c0.91,0.2,1.84,0.43,2.7,0.47c4.48,0.25,5.39-0.3,5.53-0.42
		c0.01-0.08,0.3-1.13-1.18-5.6l-0.3-0.9c-0.88-2.54-1.98-5.7-0.44-8.22c7.48-12.26,13.85-22.02,20.02-30.69
		c4.75-6.69,12.16-6.39,17.33-5.6c4.21,0.65,9.92-0.41,14.53-2.73c2.38-1.19,3.27-2.5,3.26-3.06c0-0.42-0.64-1.46-3.08-2.69
		c-1.42-0.72-2.51-1.75-3.47-2.65c-0.35-0.33-0.7-0.65-1.06-0.95c-1.03-0.86-1.41-2.25-0.97-3.49c0.44-1.25,1.62-2.11,2.96-2.17
		c0.48-0.02,0.97-0.09,1.47-0.14c1.46-0.2,3.27-0.42,5.08,0.16c4.59,1.47,9.15,3.06,13.71,4.66c8.8,3.09,17.91,6.28,27.02,8.36
		c1.92,0.44,3.85,0.97,5.81,1.52c7.76,2.16,15.07,4.19,22.41,0.3c2.59-1.4,4.94,0.95,6.51,2.49c1.56,1.55,3.92,3.91,2.47,6.44
		c-2.52,4.41-5.75,8.42-8.57,11.76c-1.11,1.31-2.66,1.65-3.81,1.91c-1.08,2.58-1.83,5.35-2.62,8.26
		c-1.61,5.95-3.29,12.08-7.93,17.24c0.38,0.55,0.8,1.07,1.05,1.26l3.53,2.61c7.44,5.53,15.14,11.24,23,16.37
		c5.61,3.66,11.35,7.13,17.1,10.6c7.9,4.78,16.07,9.73,23.79,15.11c6.44,4.49,11.47,6.22,15.38,5.23c3.67-0.9,6.95-4.3,10-10.37
		c8.1-16.1,11.65-30.73,10.86-44.75c-1.08-19.02,5.87-35.97,12.59-52.35l2.39-5.86c0.95-2.38,4.6-5.58,7.77-4.92
		c3.04,0.55,5.36,3.89,6.04,6.09c1.59,5.15,3.83,10.06,6.21,15.27c5.01,10.93,10.19,22.23,8.6,35.68c-0.18,1.5,0.03,2.63,0.62,3.36
		c0.84,1.02,2.55,1.41,3.84,1.55c16.59,1.82,20.88,13.95,22.68,22.92c4.23,21.21,9.78,42.5,15.15,62.33
		c0.94,3.48,4.18,7.49,5.82,7.83c12.76,2.66,20.56,11.56,27.44,19.41l2.71,3.07c4.66,5.18,6.76,12.2,8.78,18.99
		c0.77,2.57,1.53,5.15,2.44,7.59c0.43,1.15,0.77,2.34,1.11,3.52c1.5,5.23,2.69,7.33,7.87,7.15c0.04,0,0.07,0,0.11,0
		c4.07-0.07,6.96,4.35,10.57,10.58l0.51,0.87c1.71,2.92,3.16,5.98,4.61,9.05c1.56,3.29,3.03,6.39,4.82,9.33
		c1.35,2.23,3.15,4.28,5.05,6.44c1.58,1.81,3.17,3.62,4.54,5.56c7.36,10.39,16.52,23.32,11.84,40.33c-0.8,2.91-0.36,6.54,0.16,10.01
		c3.88,25.91-5.26,49.05-14.11,71.43c-1.4,3.55-2.8,7.09-4.15,10.65c-1,2.63-3.9,9.16-9.2,12.93c-12.76,9.06-19.6,21.69-25.95,37.85
		c-0.96,2.43-2.3,4.59-3.6,6.69c-0.94,1.52-1.9,3.05-2.65,4.65c-0.95,2.01-1.93,4.02-2.92,6.03c-2.86,5.78-5.81,11.76-7.43,17.8
		c-4,14.82-5.09,15.77-19.69,17.69c-10.96,1.45-18.44,3.76-23.65,7.17C748.3,733.64,742.59,736.9,737.74,736.99L737.74,736.99z
		 M718.38,713.83c0.14,0,0.28,0,0.43,0.01c3.11,0.18,5.25,2.82,7.34,5.73c10.15,14.17,10.47,13.96,27.38,2.93
		c6.14-4.01,14.29-6.58,25.64-8.09c11.89-1.56,11.89-1.56,14.8-12.34c1.98-7.36,5.07-13.62,8.06-19.68c0.97-1.96,1.95-3.93,2.87-5.9
		c0.86-1.83,1.92-3.58,3.01-5.31c1.2-1.94,2.33-3.77,3.08-5.66c5.86-14.91,13.34-30.17,28.24-40.75c2.67-1.9,5.25-5.62,6.9-9.96
		c1.36-3.58,2.78-7.15,4.19-10.72c8.93-22.6,17.36-43.94,13.73-68.18c-0.61-4.14-1.12-8.51,0.01-12.61
		c3.6-13.09-2.52-23.18-10.9-35.01c-1.24-1.76-2.68-3.4-4.12-5.03c-2-2.28-4.07-4.64-5.72-7.35c-1.96-3.22-3.57-6.62-5.12-9.91
		c-1.37-2.9-2.74-5.8-4.36-8.56l-0.52-0.88c-1.17-2.02-3.92-6.76-5.27-7.42c-10.04,0.54-12.41-6.58-13.89-11.74
		c-0.3-1.03-0.59-2.07-0.97-3.07c-0.96-2.57-1.77-5.28-2.58-7.99c-1.91-6.4-3.71-12.44-7.4-16.54l-2.78-3.14
		c-6.5-7.42-13.23-15.1-23.82-17.31c-5.14-1.06-9.58-7.93-10.81-12.46c-5.4-19.95-10.98-41.36-15.24-62.75
		c-2.31-11.55-7.22-16.7-16.97-17.76c-3.67-0.4-6.45-1.73-8.24-3.93c-1.72-2.12-2.4-4.84-2.02-8.1c1.38-11.71-3.21-21.73-8.07-32.33
		c-2.36-5.15-4.81-10.48-6.52-16.04c-0.12-0.41-0.46-0.91-0.77-1.27c-0.29,0.22-0.56,0.49-0.66,0.66l-2.38,5.85
		c-6.75,16.46-13.13,32-12.13,49.59c0.86,15.15-2.91,30.83-11.53,47.95c-3.96,7.87-8.63,12.38-14.29,13.78
		c-5.97,1.47-12.58-0.5-20.79-6.22c-7.55-5.26-15.63-10.15-23.44-14.88c-5.8-3.52-11.61-7.03-17.28-10.73
		c-8.03-5.23-15.81-11.01-23.34-16.61l-3.52-2.61c-1.6-1.19-4.23-4.76-4.33-6.76c-0.05-0.96,0.36-1.96,1.06-2.61
		c4.58-4.21,6.13-9.89,7.76-15.9c0.92-3.4,1.87-6.91,3.42-10.25c0.89-1.93,2.89-2.36,4.09-2.63c2.45-2.45,5-5.54,7.12-8.88
		c-0.29-0.31-0.62-0.64-0.93-0.92c-9.05,3.94-17.78,1.52-25.53-0.64c-1.85-0.52-3.68-1.03-5.5-1.45
		c-9.47-2.16-18.76-5.42-27.74-8.57c-2.28-0.8-4.57-1.6-6.85-2.39c0.77,1.33,1,2.58,1,3.62c-0.01,3.4-2.5,6.59-6.83,8.77
		c-5.87,2.96-12.97,4.24-18.57,3.36c-6.59-1.03-9.12,0.43-10.9,2.92c-6.08,8.55-12.36,18.18-19.76,30.32
		c0.1,0.19,0.69,1.92,1.02,2.85l0.34,0.99c1.62,4.92,2.26,8.77,0.1,11.53c-2.15,2.75-5.98,3.11-11.04,2.89
		c-1.22-0.06-2.55-0.34-3.85-0.63c-0.94-0.22-2.53-0.61-2.99-0.44c-9.38,4.83-13.47-1.13-16.48-5.46l-1.01-1.44
		c-8.14-11.34-15.8-12.52-28.33-4.33c-8.32,5.45-14.24,12.72-20.51,20.4l-0.6,0.73c-0.8,0.99-1.67,1.87-2.51,2.73
		c-2.82,2.85-3.65,3.9-2.49,6.96c0.48,1.26,0.27,2.71-0.6,4.31c-1.09,1.97-3.94,5.35-7,6.04c-3.63,0.81-4.16,1.36-4.25,1.52
		c-0.01,0.01-0.32,0.76,0.88,3.53c1.3,2.99-0.6,6.1-2.43,9.1c-0.59,0.97-1.19,1.93-1.6,2.82c-0.39,0.85-1.15,1.5-2.07,1.77
		c-0.92,0.25-1.9,0.13-2.71-0.39c-0.75-0.48-1.52-0.91-2.3-1.36c-1.96-1.11-3.98-2.25-5.73-3.92c-1.85-1.75-3.57-2.68-4.64-2.44
		c-0.91,0.2-1.88,1.42-2.64,3.36c-0.9,2.28-0.98,5.02-1.01,6.2c-0.01,0.05-0.01,0.23-0.02,0.41c1.08,19.79-18.55,43.52-35.62,50.01
		c-18.72,7.13-37.44,14.26-56.05,21.64c-2.64,1.04-5.15,3.11-7.3,4.97c-1.9,1.64-3.69,3.47-5.47,5.29
		c-3.71,3.8-7.54,7.71-12.39,10.15c-1.41,0.7-2.55,2.66-3.75,4.73c-2.16,3.71-5.62,9.59-13.35,7.76c-0.27,0.84-0.47,1.6-0.42,2.19
		c0.15,2.08,0.59,4.2,1.03,6.31c0.88,4.24,1.79,8.62,0.65,12.86c-2.78,10.37-0.23,19.26,8.51,29.75c1.98,2.37,3.6,4.99,5.1,7.47
		c1.36,2.25,3.06,5.05,1.89,8.04c-1.11,2.83-4.22,4.08-6.47,4.78c-0.71,0.22-1.94,0.75-2.25,1.82c-0.31,1.06,0.28,2.53,1.6,4.01
		l0.6,0.67c2.76,3.09,5.63,6.29,7.66,10.04l6.76,12.46c9.53,17.53,19.39,35.64,28.23,53.9c6.25,12.89,11.04,28.08-0.78,43.02
		c-0.31,0.85,0.27,4.28,1.02,5.12c17.37,13.08,32.77,14.03,46.98,2.77c12.62-9.99,26.93-21.31,46.61-21.65c0.01,0,0.01,0,0.02,0
		c8.38-0.15,16.89-1.92,24.85-3.82c3.2-0.75,6.6-2.9,7.57-4.77c9.59-18.44,28.78-23.95,36.58-25.46c8.79-1.71,17.2-4.73,25.32-7.66
		c6.77-2.45,13.78-4.97,21-6.74c10.73-2.62,22.85-3.31,39.32-2.26c6.92,0.43,13.52,3.14,19.91,5.76c1.74,0.71,3.48,1.43,5.21,2.08
		c1.03,0.39,2.16,0.77,3.32,1.17c5.21,1.76,11.11,3.76,12.96,8.14c2.17,5.13,5.96,9.43,9.96,13.98c5.71,6.49,11.6,13.19,12.98,22.7
		c3.12-4.74,7.48-8.15,11.72-11.48c5.51-4.32,10.72-8.39,12.65-14.95c0.65-2.23,2.71-3.28,4.37-4.14c0.45-0.23,0.9-0.45,1.28-0.7
		c0.76-0.51,1.69-0.68,2.6-0.48c0.9,0.2,1.67,0.77,2.12,1.55c0.24,0.42,0.53,0.82,0.82,1.22c0.89,1.27,2,2.84,2.19,4.8
		c0.32,3.39,0.05,6.68-0.8,9.53c-1.18,3.99-2.46,7.95-3.77,11.9l1.05-1.5c0.55-0.81,1.45-1.33,2.43-1.42
		c0.94-0.14,1.96,0.26,2.65,0.96c0.44,0.45,0.95,0.88,1.46,1.3c1.48,1.26,3.17,2.68,4.02,4.78c1.77,4.35,2.39,7.99,1.9,11.13
		c-0.39,2.45-0.42,3.74-0.36,4.39c0.58-0.13,1.63-0.48,3.38-1.37c2.03-1.03,4.65-0.2,5.68,0.2c1.84,0.73,3,1.77,3.45,3.09
		c0.74,2.17,1.57,4.35,2.39,6.53c2.55,6.77,5.19,13.77,5.66,21.04c0.54,8.14,3.29,12.75,9.19,15.43c3.8,1.73,7.96,3.11,11.98,4.44
		c5.38,1.79,10.95,3.64,16.07,6.4c10.13,5.46,17.17,4.52,24.28-3.27C713.71,715.82,715.71,713.88,718.38,713.83L718.38,713.83z"/>
	<path class="st2" d="M737.74,736.99c-5.63,0.1-10.09-4.12-16.97-13.72c-1.37-1.91-2.1-2.64-2.44-2.93
		c-0.03,0.22-0.57,0.69-1.54,1.75c-9.22,10.09-19.5,11.56-32.35,4.62c-4.61-2.49-9.67-4.17-15.01-5.94
		c-4.19-1.39-8.51-2.83-12.63-4.7c-8.16-3.7-12.28-10.33-12.97-20.85c-0.42-6.33-2.78-12.6-5.28-19.22
		c-0.74-1.96-1.48-3.93-2.16-5.89c-0.32-0.12-0.72-0.23-0.92-0.23c-2.48,1.44-9.27,3.44-12.32,1.28c-3.18-2.23-0.11-7.1,0.53-11.19
		c0.22-1.33,0.12-3.77-1.51-7.78c-0.16-0.4-0.61-0.87-1.15-1.37c-0.66,0.93-1.3,1.88-1.84,2.87c-0.42,0.77-0.73,1.61-1.03,2.44
		c-0.49,1.31-4.31,11.49-5.22,12.86c4.03-0.62-2.96,2.15-4.32,2.49c-0.33,0.09-0.66,0.16-0.95,0.28c-0.98,0.38-2.09,0.27-2.98-0.29
		s-1.45-1.5-1.5-2.53l-0.09-0.8c-0.14-0.96-0.33-2.27,0.11-3.63c1-3.18,0.7-15.08,4.47-18.44c1.57-4.73,5.05-9.26,6.47-14.05
		c0.6-2.06,0.81-4.59,0.57-7.13c-0.02-0.16-0.19-0.46-0.4-0.79c-0.21,0.12-0.38,0.22-0.46,0.3c-2.18,7.91-8.46,12.82-14.53,17.59
		c-4.59,3.6-11.61,13.63-14.05,18.39c-1.26,2.53-4.34,1.92-6.16,1.56c-1.55-0.31-1.75-7.52-1.9-10.26
		c-0.38-8.9-5.87-15.14-11.67-21.74c-4.16-4.73-8.47-9.63-11.05-15.71c-0.72-1.71-5.73-3.41-9.04-4.52
		c-1.24-0.42-2.46-0.83-3.56-1.25c-1.78-0.68-3.57-1.41-5.36-2.15c-5.89-2.41-11.97-4.9-17.79-5.27
		c-15.77-0.98-27.27-0.35-37.31,2.08c-6.88,1.67-13.4,4.03-20.31,6.52c-8.37,3.02-17.01,6.14-26.31,7.95
		c-6.87,1.33-23.72,6.14-32.01,22.07c-2.16,4.15-7.67,7.12-11.88,8.11c-8.32,1.98-17.27,3.84-26.29,4c-0.01,0-0.01,0-0.01,0
		c-17.43,0.3-30.22,10.43-42.6,20.22c-16.67,13.18-35.25,12.28-55.21-2.75c-2.42-1.82-3.15-5.6-3.35-7.15
		c-0.28-2.09-0.29-4.99,1.25-6.92c9.61-12.16,5.7-24.65,0.03-36.34c-8.78-18.11-18.6-36.16-28.1-53.62l-6.78-12.47
		c-1.67-3.1-4.27-6-6.79-8.81l-0.6-0.68c-2.85-3.2-3.92-6.74-2.98-9.98c0.83-2.91,3.24-5.18,6.6-6.22c1.95-0.6,2.37-1.07,2.39-1.09
		c-0.17-0.12-1.1-1.66-1.5-2.32c-1.37-2.27-2.85-4.65-4.54-6.67c-6.8-8.15-14.04-19.54-9.78-35.44c0.75-2.79,0.03-6.27-0.74-9.96
		c-0.49-2.39-0.98-4.79-1.14-7.14c-0.15-2.12,0.52-4.06,1.12-5.77c0.21-0.61,0.43-1.22,0.58-1.83c0.25-0.93,0.91-1.71,1.8-2.12
		c0.89-0.39,1.92-0.39,2.8,0.01c4.55,2.13,5.55,0.86,8.3-3.88c1.55-2.67,3.31-5.69,6.46-7.28c3.87-1.94,7.16-5.31,10.65-8.87
		c1.91-1.95,3.83-3.91,5.87-5.67c2.74-2.37,5.76-4.75,9.18-6.11c18.65-7.38,37.4-14.53,56.14-21.66
		c14.99-5.71,32.44-27.04,31.42-43.8c-0.01-0.16-0.01-0.33,0.01-0.5c0.05-1.72,0.16-5.35,1.47-8.65c2.05-5.19,5.14-6.85,7.36-7.33
		c2.35-0.48,6.09-0.2,10.62,4.1c1.06,1.01,2.48,1.85,4,2.72c0.07-0.11,0.13-0.22,0.2-0.33c0.7-1.15,1.87-3.07,1.92-3.74
		c-1.03-2.18-2.13-5.56-0.57-8.53c1.6-3.05,5.14-4.06,8.63-4.85c0.61-0.24,2.06-1.73,2.61-2.68c-2.06-6.48,1.55-10.13,4.22-12.84
		c0.7-0.71,1.43-1.44,2.1-2.26l0.6-0.72c6.6-8.09,12.83-15.73,21.99-21.74c15.58-10.21,27.1-8.34,37.35,5.98l1.07,1.52
		c3.08,4.46,3.82,5.51,8.07,3.34c2.41-1.21,5.09-0.63,7.44-0.1c0.91,0.2,1.84,0.43,2.7,0.47c4.48,0.25,5.39-0.3,5.53-0.42
		c0.01-0.08,0.3-1.13-1.18-5.6l-0.3-0.9c-0.88-2.54-1.98-5.7-0.44-8.22c7.48-12.26,13.85-22.02,20.02-30.69
		c4.75-6.69,12.16-6.39,17.33-5.6c4.21,0.65,9.92-0.41,14.53-2.73c2.38-1.19,3.27-2.5,3.26-3.06c0-0.42-0.64-1.46-3.08-2.69
		c-1.42-0.72-2.51-1.75-3.47-2.65c-0.35-0.33-0.7-0.65-1.06-0.95c-1.03-0.86-1.41-2.25-0.97-3.49c0.44-1.25,1.62-2.11,2.96-2.17
		c0.48-0.02,0.97-0.09,1.47-0.14c1.46-0.2,3.27-0.42,5.08,0.16c4.59,1.47,9.15,3.06,13.71,4.66c8.8,3.09,17.91,6.28,27.02,8.36
		c1.92,0.44,3.85,0.97,5.81,1.52c7.76,2.16,15.07,4.19,22.41,0.3c2.59-1.4,4.94,0.95,6.51,2.49c1.56,1.55,3.92,3.91,2.47,6.44
		c-2.52,4.41-5.75,8.42-8.57,11.76c-1.11,1.31-2.66,1.65-3.81,1.91c-1.08,2.58-1.83,5.35-2.62,8.26
		c-1.61,5.95-3.29,12.08-7.93,17.24c0.38,0.55,0.8,1.07,1.05,1.26l3.53,2.61c7.44,5.53,15.14,11.24,23,16.37
		c5.61,3.66,11.35,7.13,17.1,10.6c7.9,4.78,16.07,9.73,23.79,15.11c6.44,4.49,11.47,6.22,15.38,5.23c3.67-0.9,6.95-4.3,10-10.37
		c8.1-16.1,11.65-30.73,10.86-44.75c-1.08-19.02,5.87-35.97,12.59-52.35l2.39-5.86c0.95-2.38,4.6-5.58,7.77-4.92
		c3.04,0.55,5.36,3.89,6.04,6.09c1.59,5.15,3.83,10.06,6.21,15.27c5.01,10.93,10.19,22.23,8.6,35.68c-0.18,1.5,0.03,2.63,0.62,3.36
		c0.84,1.02,2.55,1.41,3.84,1.55c16.59,1.82,20.88,13.95,22.68,22.92c4.23,21.21,9.78,42.5,15.15,62.33
		c0.94,3.48,4.18,7.49,5.82,7.83c12.76,2.66,20.56,11.56,27.44,19.41l2.71,3.07c4.66,5.18,6.76,12.2,8.78,18.99
		c0.77,2.57,1.53,5.15,2.44,7.59c0.43,1.15,0.77,2.34,1.11,3.52c1.5,5.23,2.69,7.33,7.87,7.15c0.04,0,0.07,0,0.11,0
		c4.07-0.07,6.96,4.35,10.57,10.58l0.51,0.87c1.71,2.92,3.16,5.98,4.61,9.05c1.56,3.29,3.03,6.39,4.82,9.33
		c1.35,2.23,3.15,4.28,5.05,6.44c1.58,1.81,3.17,3.62,4.54,5.56c7.36,10.39,16.52,23.32,11.84,40.33c-0.8,2.91-0.36,6.54,0.16,10.01
		c3.88,25.91-5.26,49.05-14.11,71.43c-1.4,3.55-2.8,7.09-4.15,10.65c-1,2.63-3.9,9.16-9.2,12.93c-12.76,9.06-19.6,21.69-25.95,37.85
		c-0.96,2.43-2.3,4.59-3.6,6.69c-0.94,1.52-1.9,3.05-2.65,4.65c-0.95,2.01-1.93,4.02-2.92,6.03c-2.86,5.78-5.81,11.76-7.43,17.8
		c-4,14.82-5.09,15.77-19.69,17.69c-10.96,1.45-18.44,3.76-23.65,7.17C748.3,733.64,742.59,736.9,737.74,736.99L737.74,736.99z
		 M718.38,713.83c0.14,0,0.28,0,0.43,0.01c3.11,0.18,5.25,2.82,7.34,5.73c10.15,14.17,10.47,13.96,27.38,2.93
		c6.14-4.01,14.29-6.58,25.64-8.09c11.89-1.56,11.89-1.56,14.8-12.34c1.98-7.36,5.07-13.62,8.06-19.68c0.97-1.96,1.95-3.93,2.87-5.9
		c0.86-1.83,1.92-3.58,3.01-5.31c1.2-1.94,2.33-3.77,3.08-5.66c5.86-14.91,13.34-30.17,28.24-40.75c2.67-1.9,5.25-5.62,6.9-9.96
		c1.36-3.58,2.78-7.15,4.19-10.72c8.93-22.6,17.36-43.94,13.73-68.18c-0.61-4.14-1.12-8.51,0.01-12.61
		c3.6-13.09-2.52-23.18-10.9-35.01c-1.24-1.76-2.68-3.4-4.12-5.03c-2-2.28-4.07-4.64-5.72-7.35c-1.96-3.22-3.57-6.62-5.12-9.91
		c-1.37-2.9-2.74-5.8-4.36-8.56l-0.52-0.88c-1.17-2.02-3.92-6.76-5.27-7.42c-10.04,0.54-12.41-6.58-13.89-11.74
		c-0.3-1.03-0.59-2.07-0.97-3.07c-0.96-2.57-1.77-5.28-2.58-7.99c-1.91-6.4-3.71-12.44-7.4-16.54l-2.78-3.14
		c-6.5-7.42-13.23-15.1-23.82-17.31c-5.14-1.06-9.58-7.93-10.81-12.46c-5.4-19.95-10.98-41.36-15.24-62.75
		c-2.31-11.55-7.22-16.7-16.97-17.76c-3.67-0.4-6.45-1.73-8.24-3.93c-1.72-2.12-2.4-4.84-2.02-8.1c1.38-11.71-3.21-21.73-8.07-32.33
		c-2.36-5.15-4.81-10.48-6.52-16.04c-0.12-0.41-0.46-0.91-0.77-1.27c-0.29,0.22-0.56,0.49-0.66,0.66l-2.38,5.85
		c-6.75,16.46-13.13,32-12.13,49.59c0.86,15.15-2.91,30.83-11.53,47.95c-3.96,7.87-8.63,12.38-14.29,13.78
		c-5.97,1.47-12.58-0.5-20.79-6.22c-7.55-5.26-15.63-10.15-23.44-14.88c-5.8-3.52-11.61-7.03-17.28-10.73
		c-8.03-5.23-15.81-11.01-23.34-16.61l-3.52-2.61c-1.6-1.19-4.23-4.76-4.33-6.76c-0.05-0.96,0.36-1.96,1.06-2.61
		c4.58-4.21,6.13-9.89,7.76-15.9c0.92-3.4,1.87-6.91,3.42-10.25c0.89-1.93,2.89-2.36,4.09-2.63c2.45-2.45,5-5.54,7.12-8.88
		c-0.29-0.31-0.62-0.64-0.93-0.92c-9.05,3.94-17.78,1.52-25.53-0.64c-1.85-0.52-3.68-1.03-5.5-1.45
		c-9.47-2.16-18.76-5.42-27.74-8.57c-2.28-0.8-4.57-1.6-6.85-2.39c0.77,1.33,1,2.58,1,3.62c-0.01,3.4-2.5,6.59-6.83,8.77
		c-5.87,2.96-12.97,4.24-18.57,3.36c-6.59-1.03-9.12,0.43-10.9,2.92c-6.08,8.55-12.36,18.18-19.76,30.32
		c0.1,0.19,0.69,1.92,1.02,2.85l0.34,0.99c1.62,4.92,2.26,8.77,0.1,11.53c-2.15,2.75-5.98,3.11-11.04,2.89
		c-1.22-0.06-2.55-0.34-3.85-0.63c-0.94-0.22-2.53-0.61-2.99-0.44c-9.38,4.83-13.47-1.13-16.48-5.46l-1.01-1.44
		c-8.14-11.34-15.8-12.52-28.33-4.33c-8.32,5.45-14.24,12.72-20.51,20.4l-0.6,0.73c-0.8,0.99-1.67,1.87-2.51,2.73
		c-2.82,2.85-3.65,3.9-2.49,6.96c0.48,1.26,0.27,2.71-0.6,4.31c-1.09,1.97-3.94,5.35-7,6.04c-3.63,0.81-4.16,1.36-4.25,1.52
		c-0.01,0.01-0.32,0.76,0.88,3.53c1.3,2.99-0.6,6.1-2.43,9.1c-0.59,0.97-1.19,1.93-1.6,2.82c-0.39,0.85-1.15,1.5-2.07,1.77
		c-0.92,0.25-1.9,0.13-2.71-0.39c-0.75-0.48-1.52-0.91-2.3-1.36c-1.96-1.11-3.98-2.25-5.73-3.92c-1.85-1.75-3.57-2.68-4.64-2.44
		c-0.91,0.2-1.88,1.42-2.64,3.36c-0.9,2.28-0.98,5.02-1.01,6.2c-0.01,0.05-0.01,0.23-0.02,0.41c1.08,19.79-18.55,43.52-35.62,50.01
		c-18.72,7.13-37.44,14.26-56.05,21.64c-2.64,1.04-5.15,3.11-7.3,4.97c-1.9,1.64-3.69,3.47-5.47,5.29
		c-3.71,3.8-7.54,7.71-12.39,10.15c-1.41,0.7-2.55,2.66-3.75,4.73c-2.16,3.71-5.62,9.59-13.35,7.76c-0.27,0.84-0.47,1.6-0.42,2.19
		c0.15,2.08,0.59,4.2,1.03,6.31c0.88,4.24,1.79,8.62,0.65,12.86c-2.78,10.37-0.23,19.26,8.51,29.75c1.98,2.37,3.6,4.99,5.1,7.47
		c1.36,2.25,3.06,5.05,1.89,8.04c-1.11,2.83-4.22,4.08-6.47,4.78c-0.71,0.22-1.94,0.75-2.25,1.82c-0.31,1.06,0.28,2.53,1.6,4.01
		l0.6,0.67c2.76,3.09,5.63,6.29,7.66,10.04l6.76,12.46c9.53,17.53,19.39,35.64,28.23,53.9c6.25,12.89,11.04,28.08-0.78,43.02
		c-0.31,0.85,0.27,4.28,1.02,5.12c17.37,13.08,32.77,14.03,46.98,2.77c12.62-9.99,26.93-21.31,46.61-21.65c0.01,0,0.01,0,0.02,0
		c8.38-0.15,16.89-1.92,24.85-3.82c3.2-0.75,6.6-2.9,7.57-4.77c9.59-18.44,28.78-23.95,36.58-25.46c8.79-1.71,17.2-4.73,25.32-7.66
		c6.77-2.45,13.78-4.97,21-6.74c10.73-2.62,22.85-3.31,39.32-2.26c6.92,0.43,13.52,3.14,19.91,5.76c1.74,0.71,3.48,1.43,5.21,2.08
		c1.03,0.39,2.16,0.77,3.32,1.17c5.21,1.76,11.11,3.76,12.96,8.14c2.17,5.13,5.96,9.43,9.96,13.98c5.71,6.49,11.6,13.19,12.98,22.7
		c3.12-4.74,7.48-8.15,11.72-11.48c5.51-4.32,10.72-8.39,12.65-14.95c0.65-2.23,2.71-3.28,4.37-4.14c0.45-0.23,0.9-0.45,1.28-0.7
		c0.76-0.51,1.69-0.68,2.6-0.48c0.9,0.2,1.67,0.77,2.12,1.55c0.24,0.42,0.53,0.82,0.82,1.22c0.89,1.27,2,2.84,2.19,4.8
		c0.32,3.39,0.05,6.68-0.8,9.53c-1.18,3.99-2.46,7.95-3.77,11.9l1.05-1.5c0.55-0.81,1.45-1.33,2.43-1.42
		c0.94-0.14,1.96,0.26,2.65,0.96c0.44,0.45,0.95,0.88,1.46,1.3c1.48,1.26,3.17,2.68,4.02,4.78c1.77,4.35,2.39,7.99,1.9,11.13
		c-0.39,2.45-0.42,3.74-0.36,4.39c0.58-0.13,1.63-0.48,3.38-1.37c2.03-1.03,4.65-0.2,5.68,0.2c1.84,0.73,3,1.77,3.45,3.09
		c0.74,2.17,1.57,4.35,2.39,6.53c2.55,6.77,5.19,13.77,5.66,21.04c0.54,8.14,3.29,12.75,9.19,15.43c3.8,1.73,7.96,3.11,11.98,4.44
		c5.38,1.79,10.95,3.64,16.07,6.4c10.13,5.46,17.17,4.52,24.28-3.27C713.71,715.82,715.71,713.88,718.38,713.83L718.38,713.83z"/>
	<path class="st1" d="M740.75,823.75c-2.49,0.04-5.11-0.66-6.66-1.68c-3.11-2.04-7.18-5.39-8.87-9.71
		c-4.33-11.1-8.37-22.83-12.35-35.87c-1.27-4.17-0.01-6.64,1.28-7.98c1.97-2.07,5.21-2.73,9.19-1.82l1.22,0.25
		c1.74,0.32,3.89,0.72,5.58,2.1c6.99,5.73,14.54,6.83,23.7,3.52c5.8-2.1,9.2-0.87,11.06,0.53c1.65,1.25,3.52,3.75,3.06,8.54
		c-0.21,18.76-11.08,30.29-22.21,40.5C744.52,823.24,742.68,823.72,740.75,823.75L740.75,823.75z M719.96,772.72
		c-0.63,0.01-0.95,0.13-1.03,0.19c-0.02,0.07-0.1,0.64,0.24,1.74c3.93,12.87,7.92,24.46,12.19,35.41c0.83,2.11,3.17,4.55,6.41,6.67
		c0.79,0.52,3.1,0.77,3.82,0.47c10.21-9.44,19.68-19.45,19.8-35.77c0.01-0.1,0.01-0.2,0.02-0.3c0.15-1.47-0.05-2.61-0.53-2.97
		c-0.54-0.41-2.1-0.53-4.76,0.42c-11.46,4.12-21.34,2.62-30.18-4.61c-0.38-0.31-1.72-0.56-2.6-0.72l-1.48-0.3
		C721.05,772.77,720.42,772.72,719.96,772.72L719.96,772.72z"/>
	<path class="st3" d="M740.75,823.75c-2.49,0.04-5.11-0.66-6.66-1.68c-3.11-2.04-7.18-5.39-8.87-9.71
		c-4.33-11.1-8.37-22.83-12.35-35.87c-1.27-4.17-0.01-6.64,1.28-7.98c1.97-2.07,5.21-2.73,9.19-1.82l1.22,0.25
		c1.74,0.32,3.89,0.72,5.58,2.1c6.99,5.73,14.54,6.83,23.7,3.52c5.8-2.1,9.2-0.87,11.06,0.53c1.65,1.25,3.52,3.75,3.06,8.54
		c-0.21,18.76-11.08,30.29-22.21,40.5C744.52,823.24,742.68,823.72,740.75,823.75L740.75,823.75z M719.96,772.72
		c-0.63,0.01-0.95,0.13-1.03,0.19c-0.02,0.07-0.1,0.64,0.24,1.74c3.93,12.87,7.92,24.46,12.19,35.41c0.83,2.11,3.17,4.55,6.41,6.67
		c0.79,0.52,3.1,0.77,3.82,0.47c10.21-9.44,19.68-19.45,19.8-35.77c0.01-0.1,0.01-0.2,0.02-0.3c0.15-1.47-0.05-2.61-0.53-2.97
		c-0.54-0.41-2.1-0.53-4.76,0.42c-11.46,4.12-21.34,2.62-30.18-4.61c-0.38-0.31-1.72-0.56-2.6-0.72l-1.48-0.3
		C721.05,772.77,720.42,772.72,719.96,772.72L719.96,772.72z"/>
</g>
<path class="st0" d="M827.76,553.61c0-18.05-14.59-32.67-32.58-32.67c-17.99,0-32.58,14.63-32.58,32.67
	c0,6.89,2.13,13.28,5.77,18.56l26.81,37.89l26.81-37.89C825.63,566.9,827.76,560.51,827.76,553.61L827.76,553.61z"/>
</svg>
