<?xml version="1.0" encoding="UTF-8"?> <!-- Generator: Adobe Illustrator 25.4.1, SVG Export Plug-In . SVG Version: 6.00 Build 0) --> <svg xmlns="http://www.w3.org/2000/svg" xmlns:xlink="http://www.w3.org/1999/xlink" version="1.1" id="Layer_1" x="0px" y="0px" viewBox="0 0 568.7 110.8" style="enable-background:new 0 0 568.7 110.8;" xml:space="preserve"> <style type="text/css"> .st0{fill:#00B6C9;} .st1{fill:#101040;} </style> <g> <path class="st0" d="M381,70c0-17,11.5-30.7,30-30.7c18.6,0,30.2,13.7,30.2,30.7c0,16.9-11.6,30.7-30.2,30.7 C392.5,100.8,381,87,381,70z M423.8,70c0-7.1-5.1-12.9-12.7-12.9c-7.6,0-12.7,5.7-12.7,12.9c0,7.1,5.1,12.9,12.7,12.9 C418.7,82.9,423.8,77.1,423.8,70z"></path> <path class="st1" d="M65.1,97.9V41.2c0-2.4,5-2.4,10-2.4c4.9,0,9.8,0,9.8,2.4v56.7c0,2.4-4.9,2.4-9.9,2.4 C70,100.3,65.1,100.3,65.1,97.9z"></path> <circle class="st1" cx="74.8" cy="23.4" r="10"></circle> <path class="st1" d="M30.5,100.3c5,0,10,0,10-2.4V56.5h11.3c2.4,0,2.4-4.3,2.4-8.5c0-4.3,0-8.6-2.4-8.6H40.5v-5.7 c0-3.2,2-6.2,6-6.2c3,0,6.2,0.7,9,2.3c0.3,0.1,0.6,0.2,0.9,0.2c2,0,3.6-3.6,4.8-7c0.8-2.5,1.5-5,1.5-6.8c0-1.2-0.3-2.1-0.9-2.4 c-5.2-3-10-4-16.9-4c-14.5,0-24.3,8.8-24.3,23.8v5.7h-8.3c-2.4,0-2.5,4.3-2.5,8.6c0,4.3,0.1,8.5,2.5,8.5h8.3v41.4 C20.6,100.3,25.5,100.3,30.5,100.3z"></path> <path class="st1" d="M301.6,101c7.3,0,14-1.2,19.9-4.6c0.6-0.3,0.8-1.1,0.8-2.2c0-2.3-1-5.6-2-8.1c-1.4-3.6-3.2-7.3-5.2-7.3 c-0.3,0-0.5,0.1-0.8,0.2c-3.3,2-6.9,3.2-10.7,3.2c-6.7,0-11.3-5.4-11.3-12.6c0-7.3,4.6-12.7,11.3-12.7c3.9,0,7.3,1.2,10.6,3.1 c0.2,0.2,0.5,0.2,0.8,0.2c2,0,4.1-4.1,5.6-7.8c0.9-2.3,1.9-5.2,1.9-7.2c0-1.2-0.3-2.1-1.1-2.5c-5.9-3.4-12.3-4.6-19.7-4.6 c-16.1,0-29.3,12.2-29.3,31.4C272.2,88.9,285.5,101,301.6,101z"></path> <path class="st1" d="M351.3,38.1c-17.7,0-29.6,13.5-29.6,31.1c0,17.9,11.3,31.7,29.3,31.7c8.4,0,16-1.7,23.4-6.1 c0.7-0.4,0.9-1.1,0.9-2.1c0-1.8-0.9-4.4-1.9-7c-1.2-3.2-2.5-6-4.2-6c-0.3,0-0.6,0.1-0.9,0.2c-4.7,2.8-9.5,4.1-15,4.1 c-6,0-11.1-3.6-11.9-9.2h34.9c1.8,0,1.8-2.7,1.8-5.3C378.2,52.1,369.8,38.1,351.3,38.1z M341.2,63.3c0-5.2,4-9.4,9-9.4 c5,0,9,4.2,9,9.4H341.2z"></path> <path class="st1" d="M209.5,85.5L209.5,85.5c-1.2-0.4-1.5-0.7-2.1-1.7c-0.4-0.6-0.6-1.5-0.6-2.5l0.1-40.2l0,0v-0.6 c-0.3-1.7-3.9-1.7-7.5-1.7c-3.8,0-7.6,0-7.6,1.9v3.3c-4.6-2.7-9.6-4.1-15.2-4.1c-5.6,0-10.6,1.4-15.2,4.1c-4.6,2.7-8.2,6.4-11,11 c-2.7,4.6-4.1,9.7-4.1,15.2c0,5.6,1.4,10.7,4.1,15.3c2.7,4.6,6.4,8.2,11,11c4.6,2.7,9.6,4.1,15.2,4.1c6.4,0,14.3-2.6,19.5-6.3 c2.6,3.3,4.9,5.2,8.5,5.8c0,0,1.9,0.1,2.5,0.1c0.9,0,2.1-0.1,2.1-0.1c1.7-0.3,1.7-3.4,1.7-7C211.1,89.5,211.1,86,209.5,85.5z M186.1,80.4c-2.6,2.6-5.8,3.9-9.5,3.9c-3.7,0-6.9-1.3-9.5-3.9c-2.6-2.6-3.9-5.8-3.9-9.5c0-3.7,1.3-6.9,3.9-9.5 c2.6-2.6,5.8-3.9,9.5-3.9c3.7,0,6.9,1.3,9.5,3.9c2.6,2.6,3.9,5.8,3.9,9.5C190,74.6,188.7,77.8,186.1,80.4z"></path> <path class="st0" d="M532,38.1c-17.7,0-29.6,13.5-29.6,31.1c0,17.9,11.3,31.7,29.3,31.7c8.4,0,16-1.7,23.4-6.1 c0.7-0.4,0.9-1.1,0.9-2.1c0-1.8-0.9-4.4-1.9-7c-1.2-3.2-2.5-6-4.2-6c-0.3,0-0.6,0.1-0.9,0.2c-4.7,2.8-9.5,4.1-15,4.1 c-6,0-11.1-3.6-11.9-9.2h34.9c1.8,0,1.8-2.7,1.8-5.3C558.9,52.1,550.6,38.1,532,38.1z M521.9,63.3c0-5.2,4-9.4,9-9.4s9,4.2,9,9.4 H521.9z"></path> <path class="st1" d="M122.8,38.1c-7.4,0-12.4,4.1-16.2,9.5v-6.4c0-2.4-4.7-2.4-9.4-2.4c-4.7,0-9.4,0-9.4,2.4v56.7 c0,2.4,4.9,2.4,9.9,2.4c4.6,0,9.2,0,9.8-2V66.3c0-4.4,3.6-8,8-8c4.4,0,8,3.6,8,8V74v23.9c0,2.4,5,2.4,10,2.4c5,0,9.8,0,9.8-2.4 V63.3C143.3,47.6,135.2,38.1,122.8,38.1z"></path> <path class="st1" d="M248.9,38.1c-7.4,0-12.4,4.1-16.2,9.5v-6.4c0-2.4-4.7-2.4-9.4-2.4c-4.7,0-9.4,0-9.4,2.4v56.7 c0,2.4,4.9,2.4,9.9,2.4c4.6,0,9.2,0,9.8-2V66.3c0-4.4,3.6-8,8-8c4.4,0,8,3.6,8,8V74v23.9c0,2.4,5,2.4,10,2.4c5,0,9.8,0,9.8-2.4 V63.3C269.4,47.6,261.3,38.1,248.9,38.1z"></path> <path class="st0" d="M479,38.1c-7.4,0-12.4,4.1-16.2,9.5v-6.4c0-2.4-4.7-2.4-9.4-2.4c-4.7,0-9.4,0-9.4,2.4v56.7 c0,2.4,4.9,2.4,9.9,2.4c4.6,0,9.2,0,9.8-2V66.3c0-4.4,3.6-8,8-8c4.4,0,8,3.6,8,8V74v23.9c0,2.4,5,2.4,10,2.4c5,0,9.8,0,9.8-2.4 V63.3C499.5,47.6,491.4,38.1,479,38.1z"></path> </g> </svg> 