<svg id="Layer_1" data-name="Layer 1" xmlns="http://www.w3.org/2000/svg" xmlns:xlink="http://www.w3.org/1999/xlink" viewBox="0 0 1080 1080"><defs><style>.cls-1,.cls-3{fill:none;}.cls-2{clip-path:url(#clip-path);}.cls-3{stroke:#21293b;stroke-miterlimit:10;stroke-width:9px;}</style><clipPath id="clip-path"><rect class="cls-1" x="291.11" y="303.48" width="534.43" height="541.03"/></clipPath></defs><g class="cls-2"><path class="cls-3" d="M804.4,801.86l-33.53,33.53a15.82,15.82,0,0,1-22.36,0L608.8,695.68l55.88-55.89L804.4,779.5A15.82,15.82,0,0,1,804.4,801.86Z"/><path class="cls-3" d="M656.67,421.51,575.28,502.9M473.58,604.6,409.14,669m115.29-13.6L460,719.89M707.52,472.36l-81.39,81.39M420.89,674.23A84.63,84.63,0,0,0,300.73,777.45l54.2-54.21h24l26.87,26.88v24l-54.2,54.2A84.7,84.7,0,0,0,454.79,708.13M662,433.14a84.53,84.53,0,0,1,103.1-120l-54.21,54.21v24l26.88,26.87h24l54.2-54.2A84.7,84.7,0,0,1,695.76,467.16m-214.14,80.1L604.69,670.33l35.16-35.17L516.78,512.09l5.86-5.86a8.28,8.28,0,0,0,0-11.72L500,471.86c-10.61-10.62-13.15-27.51-4.74-39.94a31.11,31.11,0,0,1,47.91-4.8l32.23-32.24a16.58,16.58,0,0,0,0-23.44l-58.61-58.6a16.56,16.56,0,0,0-23.44,0l-32.23,32.23c12.35,12.35,12.51,32.19.38,44.33s-32,12-44.33-.38l-91.51,91.51c-24.74,24.74-35.19,61.14-25,94.63,6.37,21,18.39,34.38,32.28,43.9a78.55,78.55,0,0,1,22.71-63c29.2-29.2,74.27-32,108.85-2.12a8.18,8.18,0,0,0,11.07-.61l11.94-11.92"/></g></svg>