<svg id="Layer_1" data-name="Layer 1" xmlns="http://www.w3.org/2000/svg" xmlns:xlink="http://www.w3.org/1999/xlink" viewBox="0 0 1080 1080"><defs><style>.cls-1,.cls-3,.cls-4,.cls-6{fill:none;}.cls-2{clip-path:url(#clip-path);}.cls-3,.cls-4{stroke:#21293b;stroke-width:7px;}.cls-3,.cls-6{stroke-miterlimit:10;}.cls-4{stroke-linecap:round;stroke-linejoin:round;}.cls-5{fill:#21293b;}.cls-6{stroke:#1b1c1c;stroke-width:7.56px;}</style><clipPath id="clip-path"><rect class="cls-1" x="312.46" y="263.1" width="491.52" height="593.04"/></clipPath></defs><g class="cls-2"><path class="cls-3" d="M401.3,267.91H715.14m-48.56,85H449.86M586.07,479.4,715.14,267.91l84.05,49L674.88,528.74m-236.83-5.92L317.25,316.93l84.05-49L520.94,477.43"/><path class="cls-4" d="M588.35,800.38A138.07,138.07,0,1,1,692,634.89,138.08,138.08,0,0,1,588.35,800.38ZM742,622.52A38.22,38.22,0,0,0,714,594a38.23,38.23,0,0,0-38.38-55.14,38.2,38.2,0,0,0-57.9-34A38.22,38.22,0,0,0,551.59,493a38.21,38.21,0,0,0-65,16.88,38.22,38.22,0,0,0-55.14,38.38,38.21,38.21,0,0,0-34,57.9,38.22,38.22,0,0,0-11.84,66.13,38.2,38.2,0,0,0,16.87,65,38.23,38.23,0,0,0,38.39,55.14,38.19,38.19,0,0,0,57.89,34,38.23,38.23,0,0,0,66.14,11.85,38.2,38.2,0,0,0,65-16.87A38.23,38.23,0,0,0,685,783a38.21,38.21,0,0,0,34-57.9A38.22,38.22,0,0,0,730.88,659,38.23,38.23,0,0,0,742,622.52Z"/><path class="cls-5" d="M609,637.56h6.72v35h6.42v-35h6.72v-5.84H609Zm-20.78,4c0,4.67,1.69,8.06,7.06,12.79,4.21,3.68,5.49,5.9,5.49,8.87s-1.28,4-3.33,4-3.33-1-3.33-4v-2.92H588v2.51c0,6.54,3.27,10.28,9.58,10.28s9.57-3.74,9.57-10.28c0-4.67-1.69-8-7.06-12.78-4.21-3.68-5.49-5.9-5.49-8.88s1.17-4,3.21-4,3.21,1.11,3.21,4v1.7h6.08v-1.29c0-6.54-3.22-10.27-9.46-10.27s-9.46,3.73-9.46,10.27"/><path class="cls-6" d="M503.05,622.23c11.21-5.57,20.06-8.75,34.41-26h35V708.65h18.29v26.43H512.1V708.65h19.66V634.94l-19.66,9.34Z"/></g></svg>