<svg id="Layer_1" data-name="Layer 1" xmlns="http://www.w3.org/2000/svg" xmlns:xlink="http://www.w3.org/1999/xlink" viewBox="0 0 1080 1080"><defs><style>.cls-1,.cls-3{fill:none;}.cls-2{clip-path:url(#clip-path);}.cls-3{stroke:#21293b;stroke-miterlimit:10;stroke-width:10.84px;}.cls-4{fill:#21293b;}</style><clipPath id="clip-path"><rect class="cls-1" x="192.78" y="346.66" width="706.44" height="374.67"/></clipPath></defs><g class="cls-2"><path class="cls-3" d="M714.72,626.9c0,21.85,40.09,39.56,89.54,39.56s89.54-17.71,89.54-39.56m0-98.91V676.35c0,21.85-40.09,39.57-89.54,39.57s-89.54-17.72-89.54-39.57V528m0,0c0,21.85,40.09,39.57,89.54,39.57S893.8,549.84,893.8,528s-40.09-39.56-89.54-39.56S714.72,506.14,714.72,528Zm0,49.46c0,21.85,40.09,39.56,89.54,39.56s89.54-17.71,89.54-39.56"/><path class="cls-3" d="M456.49,670.11l-.05-102.51m0,99.49c0,22,40.08,39.79,89.53,39.79s89.54-17.81,89.54-39.79m0-99.92V670.11M456.44,567.6c0,22,40.08,39.8,89.53,39.8s89.54-17.82,89.54-39.8S595.43,527.81,546,527.81,456.44,545.62,456.44,567.6Zm0,49.75c0,22,40.08,39.79,89.53,39.79s89.54-17.82,89.54-39.79"/><path class="cls-3" d="M198.2,664.73v-51m179.08,0v49.85M198.2,613.77c0,21.77,40.09,39.41,89.54,39.41s89.54-17.64,89.54-39.41-40.09-39.41-89.54-39.41S198.2,592,198.2,613.77Zm0,49.27c0,21.76,40.09,39.41,89.54,39.41S377.28,684.8,377.28,663"/></g><line class="cls-3" x1="287.74" y1="505.92" x2="804.26" y2="377.54"/><polygon class="cls-4" points="804.26 419.66 841 372.28 786.17 346.66 804.26 419.66"/></svg>