<svg id="Layer_1" data-name="Layer 1" xmlns="http://www.w3.org/2000/svg" xmlns:xlink="http://www.w3.org/1999/xlink" viewBox="0 0 1080 1080"><defs><style>.cls-1,.cls-3{fill:none;}.cls-2{clip-path:url(#clip-path);}.cls-3{stroke:#21293b;stroke-miterlimit:10;stroke-width:9px;}</style><clipPath id="clip-path"><rect class="cls-1" x="311.29" y="293.98" width="469.42" height="512.03"/></clipPath></defs><g class="cls-2"><path class="cls-3" d="M701.26,768.06V734.61m75,66.91H626.31V678.85h149.9ZM658.43,678.85V634.24c0-24.63,19.17-44.6,42.83-44.6s42.83,20,42.83,44.6m-353.35-145h278.4M476.4,768.06V589.64H583.48V768.06M701.26,589.64V489.27h42.83V467L529.94,299.69,315.79,467v22.3h42.83V768.06H626.31M562.06,489.27V433.51c0-18.47-14.38-33.45-32.12-33.45s-32.12,15-32.12,33.45v55.76"/></g></svg>