<svg id="Layer_1" data-name="Layer 1" xmlns="http://www.w3.org/2000/svg" xmlns:xlink="http://www.w3.org/1999/xlink" viewBox="0 0 1080 1080"><defs><style>.cls-1,.cls-3{fill:none;}.cls-2{clip-path:url(#clip-path);}.cls-3{stroke:#21293b;stroke-width:9px;}</style><clipPath id="clip-path"><rect class="cls-1" x="277.07" y="270.88" width="489.85" height="598.25"/></clipPath></defs><g class="cls-2"><path class="cls-3" d="M410.5,864.62H297.7M598.82,567.05a101.14,101.14,0,0,0-70.93-29.26H385.42c-57.35,0-103.85,48.59-103.85,108.53v86c0,34.36,26.65,62.21,59.53,62.21h88.44m23.7-89H378.37A11.32,11.32,0,0,1,367.3,694V651.55m106.63-20.26L439.74,757l-15.44,56.8-13.8,50.78H697.61L713.29,807l14.23-52.35L761,631.29ZM456.66,479.73c-54,0-97.78-45.73-97.78-102.18s43.77-102.17,97.78-102.17,97.76,45.76,97.76,102.17S510.65,479.73,456.66,479.73Z"/></g></svg>